<svg width="20" height="20" viewBox="0 0 20 20" fill="none" xmlns="http://www.w3.org/2000/svg">
<path d="M8.91111 13.2667L14.3944 7.78333L13.3056 6.69444L8.91111 11.0889L6.69444 8.87222L5.60556 9.96111L8.91111 13.2667ZM4.55556 17C4.12778 17 3.7617 16.8478 3.45733 16.5434C3.15296 16.2391 3.00052 15.8727 3 15.4444V4.55556C3 4.12778 3.15244 3.7617 3.45733 3.45733C3.76222 3.15296 4.1283 3.00052 4.55556 3H15.4444C15.8722 3 16.2386 3.15244 16.5434 3.45733C16.8483 3.76222 17.0005 4.1283 17 4.55556V15.4444C17 15.8722 16.8478 16.2386 16.5434 16.5434C16.2391 16.8483 15.8727 17.0005 15.4444 17H4.55556Z" fill="#5E97D7"/>
</svg>
