<svg width="16" height="16" viewBox="0 0 16 16" fill="none" xmlns="http://www.w3.org/2000/svg">
<path d="M8.00006 13.4405C4.99206 13.4405 2.56006 11.0085 2.56006 8.00055C2.56006 4.99255 4.99206 2.56055 8.00006 2.56055C11.0081 2.56055 13.4401 4.99255 13.4401 8.00055C13.4401 11.0085 11.0081 13.4405 8.00006 13.4405ZM8.00006 3.20055C5.34406 3.20055 3.20006 5.34455 3.20006 8.00055C3.20006 10.6565 5.34406 12.8005 8.00006 12.8005C10.6561 12.8005 12.8001 10.6565 12.8001 8.00055C12.8001 5.34455 10.6561 3.20055 8.00006 3.20055Z" fill="#A7A7A7"/>
<path d="M5.12012 7.67969H10.8801V8.31969H5.12012V7.67969Z" fill="#A7A7A7"/>
</svg>
