<svg width="20" height="20" viewBox="0 0 20 20" fill="none" xmlns="http://www.w3.org/2000/svg">
<path d="M9.99995 16.7992C6.23995 16.7992 3.19995 13.7592 3.19995 9.99922C3.19995 6.23922 6.23995 3.19922 9.99995 3.19922C13.76 3.19922 16.8 6.23922 16.8 9.99922C16.8 13.7592 13.76 16.7992 9.99995 16.7992ZM9.99995 3.99922C6.67995 3.99922 3.99995 6.67922 3.99995 9.99922C3.99995 13.3192 6.67995 15.9992 9.99995 15.9992C13.32 15.9992 16 13.3192 16 9.99922C16 6.67922 13.32 3.99922 9.99995 3.99922Z" fill="#FF0000"/>
<path d="M6.3999 9.59961H13.5999V10.3996H6.3999V9.59961Z" fill="#FF0000"/>
</svg>
