<svg width="16" height="16" viewBox="0 0 16 16" fill="none" xmlns="http://www.w3.org/2000/svg">
<path d="M7.99957 13.4401C4.99157 13.4401 2.55957 11.0081 2.55957 8.00006C2.55957 4.99206 4.99157 2.56006 7.99957 2.56006C11.0076 2.56006 13.4396 4.99206 13.4396 8.00006C13.4396 11.0081 11.0076 13.4401 7.99957 13.4401ZM7.99957 3.20006C5.34357 3.20006 3.19957 5.34406 3.19957 8.00006C3.19957 10.6561 5.34357 12.8001 7.99957 12.8001C10.6556 12.8001 12.7996 10.6561 12.7996 8.00006C12.7996 5.34406 10.6556 3.20006 7.99957 3.20006Z" fill="#A7A7A7"/>
<path d="M5.12012 7.67993H10.8801V8.31993H5.12012V7.67993Z" fill="#A7A7A7"/>
</svg>
