<svg width="58" height="20" viewBox="0 0 58 20" fill="none" xmlns="http://www.w3.org/2000/svg">
<path d="M1.15245 15.8883C1.15245 15.1683 1.36045 14.5683 1.77645 14.0883C2.20845 13.6083 2.78445 13.2323 3.50445 12.9603C4.22445 12.6723 5.07245 12.4723 6.04845 12.3603C7.02445 12.2483 8.06445 12.1923 9.16845 12.1923C10.2725 12.1923 11.3125 12.2323 12.2885 12.3123C13.2645 12.3923 14.1125 12.5683 14.8325 12.8403C15.5525 13.0963 16.1205 13.4643 16.5365 13.9443C16.9685 14.4243 17.1845 15.0723 17.1845 15.8883C17.1845 16.6883 16.9685 17.3283 16.5365 17.8083C16.1205 18.2883 15.5525 18.6563 14.8325 18.9123C14.1125 19.1843 13.2645 19.3603 12.2885 19.4403C11.3125 19.5363 10.2725 19.5843 9.16845 19.5843C8.06445 19.5843 7.02445 19.5363 6.04845 19.4403C5.07245 19.3603 4.22445 19.1843 3.50445 18.9123C2.78445 18.6563 2.20845 18.2883 1.77645 17.8083C1.36045 17.3283 1.15245 16.6883 1.15245 15.8883ZM16.9925 10.0323C16.9925 10.0483 16.9845 10.1043 16.9685 10.2003C16.9685 10.2963 16.9445 10.4163 16.8965 10.5603C16.8485 10.6883 16.7765 10.8243 16.6805 10.9683C16.6005 11.1123 16.4805 11.2323 16.3205 11.3283C16.1445 11.4403 15.9605 11.4963 15.7685 11.4963C15.4485 11.4963 15.1845 11.4163 14.9765 11.2563C14.8005 11.1283 14.6645 10.9683 14.5685 10.7763C14.3285 10.3283 14.2165 9.82432 14.2325 9.26432C14.2485 8.70432 14.2645 8.17632 14.2805 7.68032V7.34432C14.0565 7.36032 13.8325 7.36832 13.6085 7.36832C13.4005 7.36832 13.2085 7.37632 13.0325 7.39232H12.9605V9.57632C12.9445 9.75232 12.9205 9.92832 12.8885 10.1043C12.8565 10.2643 12.7925 10.4323 12.6965 10.6083C12.5845 10.8163 12.4485 10.9683 12.2885 11.0643C12.1765 11.1443 12.0805 11.2083 12.0005 11.2563C11.9205 11.3043 11.8085 11.3283 11.6645 11.3283C11.4405 11.3283 11.2165 11.2643 10.9925 11.1363C10.8325 11.0403 10.7045 10.9283 10.6085 10.8003C10.5125 10.6563 10.4405 10.5203 10.3925 10.3923C10.3445 10.2643 10.3125 10.1523 10.2965 10.0563C10.2805 9.96032 10.2725 9.91232 10.2725 9.91232V1.99232C10.2565 1.91232 10.2565 1.73632 10.2725 1.46432C10.3045 1.17632 10.3685 0.936319 10.4645 0.744319C10.6245 0.408319 10.9525 0.21632 11.4485 0.168319C11.7205 0.13632 11.9445 0.15232 12.1205 0.21632C12.2965 0.280319 12.4485 0.384319 12.5765 0.528319C12.6885 0.656319 12.7605 0.784319 12.7925 0.91232C12.8245 1.02432 12.8565 1.14432 12.8885 1.27232C12.9365 1.43232 12.9605 1.60032 12.9605 1.77632C12.9765 1.95232 12.9845 2.12832 12.9845 2.30432C12.9685 2.36832 12.9605 2.46432 12.9605 2.59232V4.70432C13.0405 4.72032 13.2165 4.73632 13.4885 4.75232C13.7605 4.75232 14.0325 4.76032 14.3045 4.77632V2.52032V2.23232C14.2885 2.05632 14.2805 1.88832 14.2805 1.72832C14.2965 1.55232 14.3285 1.37632 14.3765 1.20032C14.4405 0.960319 14.5845 0.720319 14.8085 0.480319C15.0645 0.16032 15.4405 0.03232 15.9365 0.0963202C16.3525 0.160319 16.6405 0.368319 16.8005 0.720319C16.8965 0.91232 16.9525 1.14432 16.9685 1.41632C17.0005 1.68832 17.0085 1.85632 16.9925 1.92032V10.0323ZM2.49645 10.6323C2.01645 10.6323 1.62445 10.5843 1.32045 10.4883C1.01645 10.3763 0.744453 10.1603 0.504453 9.84032C0.200453 9.44032 0.0484532 8.99232 0.0484532 8.49632C0.0484532 7.80832 0.0404532 7.04832 0.0244532 6.21632C0.00845316 5.36832 0.0164531 4.60032 0.0484532 3.91232C0.0644532 3.49632 0.0644532 3.06432 0.0484532 2.61632C0.0484532 2.15232 0.152453 1.73632 0.360453 1.36832C0.472453 1.16032 0.632453 0.992319 0.840453 0.864319C1.06445 0.720319 1.28845 0.632319 1.51245 0.600319C1.75245 0.56832 1.97645 0.60032 2.18445 0.69632C2.40845 0.77632 2.58445 0.92032 2.71245 1.12832C3.00045 1.60832 3.13645 2.12032 3.12045 2.66432C3.12045 3.19232 3.12045 3.73632 3.12045 4.29632C3.12045 4.48832 3.12045 4.71232 3.12045 4.96832C3.12045 5.22432 3.12045 5.48832 3.12045 5.76032C3.13645 6.03232 3.14445 6.30432 3.14445 6.57632C3.16045 6.83232 3.18445 7.05632 3.21645 7.24832C3.23245 7.44032 3.28045 7.58432 3.36045 7.68032C3.44045 7.76032 3.53645 7.81632 3.64845 7.84832C3.76045 7.88032 3.88845 7.89632 4.03245 7.89632C4.17645 7.89632 4.32045 7.89632 4.46445 7.89632L8.32845 8.04032C8.53645 8.04032 8.70445 8.10432 8.83245 8.23232C8.97645 8.34432 9.08045 8.48832 9.14445 8.66432C9.20845 8.82432 9.24845 9.00032 9.26445 9.19232C9.28045 9.36832 9.27245 9.52832 9.24045 9.67232C9.19245 10.0403 9.00845 10.2963 8.68845 10.4403C8.36845 10.5683 7.99245 10.6323 7.56045 10.6323H2.49645ZM13.9445 15.8883C13.9445 15.6163 13.8005 15.4003 13.5125 15.2403C13.2245 15.0803 12.8485 14.9603 12.3845 14.8803C11.9365 14.8003 11.4245 14.7523 10.8485 14.7363C10.2885 14.7043 9.72845 14.6883 9.16845 14.6883C8.60845 14.6883 8.04845 14.7043 7.48845 14.7363C6.94445 14.7523 6.44845 14.8003 6.00045 14.8803C5.56845 14.9603 5.21645 15.0803 4.94445 15.2403C4.67245 15.4003 4.53645 15.6163 4.53645 15.8883C4.53645 16.1283 4.67245 16.3283 4.94445 16.4883C5.21645 16.6483 5.56845 16.7683 6.00045 16.8483C6.44845 16.9283 6.94445 16.9843 7.48845 17.0163C8.04845 17.0483 8.60845 17.0643 9.16845 17.0643C9.72845 17.0643 10.2885 17.0643 10.8485 17.0643C11.4245 17.0643 11.9365 17.0323 12.3845 16.9683C12.8485 16.9043 13.2245 16.7923 13.5125 16.6323C13.8005 16.4563 13.9445 16.2083 13.9445 15.8883ZM26.35 3.00032C26.35 3.00032 26.342 3.11232 26.326 3.33632C26.326 3.54432 26.326 3.78432 26.326 4.05632C26.326 4.32832 26.326 4.58432 26.326 4.82432C26.342 5.04832 26.35 5.17632 26.35 5.20832C26.798 5.76832 27.222 6.28032 27.622 6.74432C28.038 7.19232 28.462 7.63232 28.894 8.06432C29.198 8.36832 29.502 8.69632 29.806 9.04832C30.11 9.40032 30.318 9.76032 30.43 10.1283C30.478 10.2723 30.486 10.4323 30.454 10.6083C30.422 10.7843 30.318 10.9363 30.142 11.0643C29.87 11.2243 29.582 11.3043 29.278 11.3043C28.926 11.3043 28.59 11.2323 28.27 11.0883C27.95 10.9443 27.694 10.8003 27.502 10.6563C27.198 10.4323 26.918 10.2003 26.662 9.96032C26.406 9.70432 26.15 9.44832 25.894 9.19232C25.718 9.01632 25.518 8.81632 25.294 8.59232C25.07 8.35232 24.846 8.14432 24.622 7.96832L23.974 8.61632C23.862 8.72832 23.75 8.84032 23.638 8.95232C23.526 9.04832 23.422 9.15232 23.326 9.26432C23.118 9.48832 22.902 9.72032 22.678 9.96032C22.454 10.1843 22.198 10.4003 21.91 10.6083C21.254 11.0883 20.638 11.3283 20.062 11.3283C19.982 11.3283 19.91 11.3283 19.846 11.3283C19.798 11.3283 19.734 11.3123 19.654 11.2803C19.302 11.2003 19.07 11.0563 18.958 10.8483C18.846 10.6723 18.806 10.4723 18.838 10.2483C18.886 10.0243 18.958 9.82432 19.054 9.64832C19.182 9.47232 19.326 9.30432 19.486 9.14432C19.646 8.96832 19.806 8.79232 19.966 8.61632C20.11 8.45632 20.334 8.20832 20.638 7.87232C20.958 7.52032 21.278 7.16032 21.598 6.79232C21.918 6.40832 22.214 6.06432 22.486 5.76032C22.758 5.45632 22.926 5.27232 22.99 5.20832V3.00032H21.454C21.262 3.00032 21.038 3.00832 20.782 3.02432C20.526 3.02432 20.27 3.00832 20.014 2.97632C19.774 2.94432 19.55 2.88032 19.342 2.78432C19.134 2.67232 18.982 2.49632 18.886 2.25632C18.806 2.08032 18.75 1.88032 18.718 1.65632C18.702 1.43232 18.718 1.22432 18.766 1.03232C18.83 0.80832 18.974 0.65632 19.198 0.57632C19.422 0.48032 19.638 0.41632 19.846 0.384319C19.878 0.384319 20.006 0.384319 20.23 0.384319C20.47 0.384319 20.726 0.384319 20.998 0.384319C21.27 0.384319 21.526 0.384319 21.766 0.384319C22.006 0.384319 22.15 0.376319 22.198 0.36032H27.814C28.454 0.36032 28.99 0.40032 29.422 0.480319C29.87 0.560319 30.23 0.760319 30.502 1.08032C30.582 1.17632 30.63 1.30432 30.646 1.46432C30.678 1.62432 30.678 1.79232 30.646 1.96832C30.63 2.12832 30.582 2.28032 30.502 2.42432C30.438 2.56832 30.342 2.67232 30.214 2.73632C30.086 2.78432 29.934 2.84032 29.758 2.90432C29.582 2.95232 29.43 2.98432 29.302 3.00032C29.078 3.01632 28.846 3.02432 28.606 3.02432C28.382 3.00832 28.158 3.00032 27.934 3.00032H26.35ZM23.734 19.4403C23.078 19.4403 22.55 19.2963 22.15 19.0083C21.75 18.7363 21.55 18.4163 21.55 18.0483V14.3283C21.518 13.9763 21.518 13.6163 21.55 13.2483C21.582 12.9123 21.71 12.6403 21.934 12.4323C22.174 12.2243 22.478 12.1203 22.846 12.1203C22.926 12.1203 23.07 12.1283 23.278 12.1443C23.486 12.1443 23.63 12.1603 23.71 12.1923C23.918 12.2563 24.078 12.3523 24.19 12.4803C24.318 12.6083 24.414 12.7603 24.478 12.9363C24.542 13.0963 24.582 13.2723 24.598 13.4643C24.614 13.6403 24.63 13.8163 24.646 13.9923C24.646 14.0563 24.646 14.2163 24.646 14.4723C24.662 14.7283 24.67 15.0083 24.67 15.3123C24.686 15.6003 24.694 15.8723 24.694 16.1283C24.71 16.3843 24.726 16.5363 24.742 16.5843C24.79 16.6003 24.918 16.6243 25.126 16.6563C25.35 16.6723 25.758 16.6803 26.35 16.6803C26.862 16.6803 27.174 16.6723 27.286 16.6563C27.414 16.6403 27.486 16.6323 27.502 16.6323H35.35C35.35 16.6323 35.398 16.6483 35.494 16.6803C35.606 16.7123 35.726 16.7683 35.854 16.8483C35.982 16.9123 36.102 17.0083 36.214 17.1363C36.326 17.2483 36.398 17.3843 36.43 17.5443C36.51 18.1523 36.406 18.6243 36.118 18.9603C35.926 19.1843 35.718 19.3203 35.494 19.3683C35.27 19.4163 35.15 19.4403 35.134 19.4403H23.734ZM35.926 7.89632V11.0163C35.91 11.1923 35.886 11.3763 35.854 11.5683C35.822 11.7443 35.758 11.9203 35.662 12.0963C35.55 12.3043 35.414 12.4563 35.254 12.5523C34.998 12.7283 34.734 12.8163 34.462 12.8163C34.222 12.8163 33.998 12.7523 33.79 12.6243C33.63 12.5283 33.502 12.4083 33.406 12.2643C33.31 12.1203 33.23 11.9843 33.166 11.8563C33.118 11.7283 33.086 11.6163 33.07 11.5203C33.054 11.4083 33.046 11.3523 33.046 11.3523V1.99232C33.046 1.91232 33.054 1.73632 33.07 1.46432C33.102 1.17632 33.166 0.936319 33.262 0.744319C33.422 0.408319 33.75 0.21632 34.246 0.168319C34.518 0.13632 34.766 0.15232 34.99 0.21632C35.23 0.280319 35.414 0.384319 35.542 0.528319C35.638 0.656319 35.702 0.784319 35.734 0.91232C35.782 1.02432 35.822 1.14432 35.854 1.27232C35.902 1.43232 35.926 1.60032 35.926 1.77632C35.942 1.95232 35.942 2.12832 35.926 2.30432V5.20832C35.99 5.20832 36.11 5.21632 36.286 5.23232C36.462 5.24832 36.646 5.26432 36.838 5.28032C37.046 5.28032 37.238 5.28832 37.414 5.30432C37.59 5.32032 37.71 5.33632 37.774 5.35232C38.094 5.41632 38.318 5.51232 38.446 5.64032C38.574 5.75232 38.662 5.89632 38.71 6.07232C38.742 6.24832 38.758 6.45632 38.758 6.69632C38.758 6.92032 38.71 7.11232 38.614 7.27232C38.422 7.59232 38.134 7.77632 37.75 7.82432C37.366 7.87232 36.942 7.89632 36.478 7.89632H35.926ZM42.5195 4.15232C42.2475 4.15232 41.9355 4.12032 41.5835 4.05632C41.2475 3.97632 40.9835 3.79232 40.7915 3.50432C40.6795 3.31232 40.6075 3.09632 40.5755 2.85632C40.5435 2.61632 40.5595 2.38432 40.6235 2.16032C40.7515 1.71232 41.0475 1.38432 41.5115 1.17632C41.6075 1.14432 41.7035 1.11232 41.7995 1.08032C41.8955 1.04832 41.9995 1.01632 42.1115 0.98432C42.4155 0.904319 42.6635 0.864319 42.8555 0.864319C43.0635 0.848319 43.3275 0.832319 43.6475 0.816319C43.7915 0.816319 43.9035 0.816319 43.9835 0.816319C44.0635 0.816319 44.1675 0.80832 44.2955 0.79232C44.4235 0.79232 44.5115 0.79232 44.5595 0.79232C44.6075 0.77632 44.7035 0.76832 44.8475 0.76832C44.9275 0.76832 45.1275 0.76832 45.4475 0.76832C45.7675 0.76832 46.1355 0.76832 46.5515 0.76832C46.9835 0.76832 47.4395 0.77632 47.9195 0.79232C48.3995 0.79232 48.8475 0.79232 49.2635 0.79232C49.6955 0.79232 50.0635 0.80032 50.3675 0.816319C50.6875 0.816319 50.8875 0.816319 50.9675 0.816319C51.2075 0.832319 51.4555 0.840319 51.7115 0.840319C51.9675 0.840319 52.2235 0.840319 52.4795 0.840319C52.7675 0.840319 53.0475 0.848319 53.3195 0.864319C53.6075 0.88032 53.8955 0.90432 54.1835 0.936319C54.3115 0.96832 54.4395 0.99232 54.5675 1.00832C54.7115 1.02432 54.8475 1.07232 54.9755 1.15232C55.1515 1.24832 55.2875 1.39232 55.3835 1.58432C55.4795 1.76032 55.5515 1.96032 55.5995 2.18432C55.6635 2.39232 55.7035 2.60832 55.7195 2.83232C55.7355 3.05632 55.7435 3.25632 55.7435 3.43232C55.7435 3.65632 55.7435 3.87232 55.7435 4.08032C55.7595 4.28832 55.7675 4.50432 55.7675 4.72832C55.7835 5.03232 55.7915 5.38432 55.7915 5.78432C55.7915 6.18432 55.7835 6.53632 55.7675 6.84032C55.7515 7.49632 55.7355 8.14432 55.7195 8.78432C55.7195 9.40832 55.7195 10.0483 55.7195 10.7043C55.7195 10.9603 55.6955 11.2163 55.6475 11.4723C55.5995 11.7123 55.4955 11.9443 55.3355 12.1683C55.1595 12.3923 54.9435 12.5523 54.6875 12.6483C54.4315 12.7283 54.1675 12.7283 53.8955 12.6483C53.5755 12.5683 53.3355 12.4323 53.1755 12.2403C53.0315 12.0323 52.9195 11.8003 52.8395 11.5443C52.7755 11.2723 52.7355 10.9923 52.7195 10.7043C52.7035 10.4003 52.6795 10.1203 52.6475 9.86432C52.5515 9.19232 52.5035 8.53632 52.5035 7.89632C52.5195 7.52832 52.5115 7.12832 52.4795 6.69632C52.4475 6.24832 52.4315 5.84832 52.4315 5.49632C52.4315 5.22432 52.4155 4.96832 52.3835 4.72832C52.3515 4.47232 52.2235 4.28032 51.9995 4.15232C51.9035 4.10432 51.7915 4.08032 51.6635 4.08032C51.5355 4.08032 51.3835 4.08032 51.2075 4.08032H50.7035C50.6235 4.09632 50.5435 4.10432 50.4635 4.10432C50.3835 4.08832 50.3035 4.08032 50.2235 4.08032H47.6795C47.3595 4.08032 47.0795 4.09632 46.8395 4.12832C46.6155 4.14432 46.3435 4.15232 46.0235 4.15232C45.7035 4.15232 45.4155 4.15232 45.1595 4.15232C44.9195 4.13632 44.6395 4.14432 44.3195 4.17632C44.1915 4.19232 44.0875 4.19232 44.0075 4.17632C43.9435 4.16032 43.8475 4.15232 43.7195 4.15232H42.5195ZM55.8635 14.7603C55.9115 14.7763 55.9595 14.7843 56.0075 14.7843C56.0555 14.7683 56.1035 14.7603 56.1515 14.7603C56.4235 14.7923 56.6715 14.8483 56.8955 14.9283C57.1355 14.9923 57.3675 15.1203 57.5915 15.3123C57.8155 15.5363 57.9275 15.8163 57.9275 16.1523C57.9275 16.3283 57.8955 16.5203 57.8315 16.7283C57.7835 16.9203 57.7115 17.0723 57.6155 17.1843C57.4875 17.3123 57.3275 17.4083 57.1355 17.4723C56.9435 17.5363 56.7595 17.5843 56.5835 17.6163C56.4075 17.6323 56.2475 17.6403 56.1035 17.6403C55.9755 17.6403 55.9035 17.6403 55.8875 17.6403H42.4475C42.3675 17.6403 42.2875 17.6483 42.2075 17.6643C42.1275 17.6643 42.0475 17.6643 41.9675 17.6643C41.6315 17.6803 41.2715 17.6803 40.8875 17.6643C40.5035 17.6323 40.1755 17.5043 39.9035 17.2803C39.5675 16.9763 39.3995 16.6323 39.3995 16.2483C39.3995 16.0083 39.4715 15.7603 39.6155 15.5043C39.7595 15.2483 39.9515 15.0723 40.1915 14.9763C40.5115 14.8483 40.8395 14.7843 41.1755 14.7843C41.5275 14.7843 41.8795 14.7763 42.2315 14.7603H42.3515C42.6875 14.7603 42.9995 14.7603 43.2875 14.7603C43.5755 14.7443 43.8555 14.7363 44.1275 14.7363C44.3995 14.7363 44.6795 14.7443 44.9675 14.7603C45.2555 14.7603 45.5835 14.7603 45.9515 14.7603L45.9275 9.60032C45.9275 9.45632 45.9515 9.30432 45.9995 9.14432C46.0315 9.01632 46.0875 8.88032 46.1675 8.73632C46.2635 8.59232 46.3995 8.45632 46.5755 8.32832C46.7835 8.18432 47.0315 8.09632 47.3195 8.06432C47.6075 8.03232 47.8875 8.06432 48.1595 8.16032C48.4315 8.24032 48.6635 8.38432 48.8555 8.59232C49.0475 8.78432 49.1435 9.02432 49.1435 9.31232L49.1915 14.7603C50.0875 14.7603 50.9435 14.7523 51.7595 14.7363C52.5755 14.7203 53.3995 14.7283 54.2315 14.7603C54.5195 14.7763 54.7995 14.7763 55.0715 14.7603C55.3435 14.7283 55.6075 14.7283 55.8635 14.7603Z" fill="white"/>
</svg>
