<svg width="24" height="24" viewBox="0 0 24 24" fill="none" xmlns="http://www.w3.org/2000/svg">
<path d="M12.6862 18.2219C13.0882 18.2999 13.4942 18.3409 13.9042 18.3449C14.9355 18.3453 15.9552 18.1272 16.8962 17.7049L19.9912 18.1599C20.1359 18.1609 20.2792 18.1315 20.4118 18.0734C20.5444 18.0153 20.6632 17.93 20.7606 17.8229C20.858 17.7158 20.9317 17.5894 20.9769 17.4519C21.0222 17.3144 21.0379 17.1689 21.0232 17.0249L20.6512 13.8989C21.0496 12.9842 21.2536 11.9966 21.2502 10.9989C21.2476 10.0387 21.0556 9.08847 20.6854 8.20253C20.3152 7.31659 19.7739 6.51234 19.0925 5.8358C18.4111 5.15926 17.6031 4.62371 16.7145 4.25978C15.826 3.89586 14.8744 3.7107 13.9142 3.71491C12.2645 3.7147 10.6635 4.27363 9.37234 5.30049C8.08122 6.32736 7.17627 7.76152 6.80518 9.36891" stroke="#5E97D7" stroke-width="1.5" stroke-linecap="round" stroke-linejoin="round"/>
<path d="M13.9041 14.7444C13.8972 16.0068 13.4685 17.2307 12.6861 18.2214C12.1569 18.8699 11.4894 19.3917 10.7323 19.7487C9.97533 20.1056 9.14803 20.2887 8.31109 20.2844C7.52171 20.2798 6.74191 20.1112 6.02109 19.7894L3.71009 20.2024C3.59397 20.2153 3.47646 20.201 3.36683 20.1606C3.25719 20.1203 3.15843 20.055 3.07834 19.97C2.99824 19.8849 2.939 19.7824 2.90529 19.6706C2.87158 19.5587 2.86432 19.4406 2.88409 19.3254L3.20409 16.9624C2.90044 16.2623 2.74583 15.5066 2.75009 14.7434C2.74868 13.5283 3.14396 12.346 3.87585 11.376C4.60774 10.4061 5.63624 9.70152 6.80509 9.36943C7.29726 9.22258 7.80848 9.14945 8.32208 9.15243C9.80378 9.15455 11.224 9.74484 12.2707 10.7936C13.3174 11.8423 13.9049 13.2637 13.9041 14.7454" stroke="#5E97D7" stroke-width="1.5" stroke-linecap="round" stroke-linejoin="round"/>
</svg>
