<svg width="12" height="12" viewBox="0 0 12 12" fill="none" xmlns="http://www.w3.org/2000/svg">
<path d="M6.0015 10.5C5.3795 10.5 4.7945 10.382 4.2465 10.146C3.69883 9.90967 3.22233 9.589 2.817 9.184C2.41167 8.779 2.09083 8.303 1.8545 7.756C1.61817 7.209 1.5 6.62417 1.5 6.0015C1.5 5.37883 1.61817 4.79383 1.8545 4.2465C2.0905 3.69883 2.41067 3.22233 2.815 2.817C3.21933 2.41167 3.6955 2.09083 4.2435 1.8545C4.7915 1.61817 5.3765 1.5 5.9985 1.5C6.6205 1.5 7.2055 1.61817 7.7535 1.8545C8.30117 2.0905 8.77767 2.41083 9.183 2.8155C9.58833 3.22017 9.90917 3.69633 10.1455 4.244C10.3818 4.79167 10.5 5.3765 10.5 5.9985C10.5 6.6205 10.382 7.2055 10.146 7.7535C9.91 8.3015 9.58933 8.778 9.184 9.183C8.77867 9.588 8.30267 9.90883 7.756 10.1455C7.20933 10.3822 6.6245 10.5003 6.0015 10.5Z" fill="#5E97D7"/>
</svg>
