<svg width="16" height="16" viewBox="0 0 16 16" fill="none" xmlns="http://www.w3.org/2000/svg">
<path d="M8.73841 7.8399L15.492 1.0797C15.6112 0.959965 15.678 0.79789 15.6779 0.628976C15.6778 0.460062 15.6107 0.298077 15.4914 0.1785C15.2526 -0.0591001 14.832 -0.0602999 14.5908 0.1797L7.83901 6.9399L1.08481 0.1779C0.844814 -0.0591001 0.424214 -0.0579001 0.185414 0.1791C0.126142 0.238136 0.0792202 0.308386 0.0473885 0.385751C0.0155567 0.463115 -0.000547876 0.546045 1.42224e-05 0.6297C1.42224e-05 0.8001 0.0660142 0.9597 0.185414 1.0779L6.93901 7.8393L0.186014 14.6013C0.0668455 14.7212 0.000109648 14.8835 0.000447095 15.0526C0.000784543 15.2216 0.0681679 15.3837 0.187814 15.5031C0.303614 15.6177 0.467414 15.6837 0.636614 15.6837H0.640214C0.810014 15.6831 0.973814 15.6165 1.08721 15.5007L7.83901 8.7405L14.5932 15.5025C14.7126 15.6213 14.8722 15.6873 15.0414 15.6873C15.125 15.6874 15.2079 15.671 15.2851 15.639C15.3624 15.607 15.4326 15.5602 15.4917 15.501C15.5509 15.4419 15.5978 15.3717 15.6297 15.2944C15.6617 15.2171 15.6781 15.1343 15.678 15.0507C15.678 14.8809 15.612 14.7207 15.492 14.6025L8.73841 7.8399Z" fill="#5E97D7"/>
</svg>
