<svg width="75" height="64" viewBox="0 0 75 64" fill="none" xmlns="http://www.w3.org/2000/svg">
<path d="M49.8128 28.8125L47.6878 27.585C48.0723 27.1889 48.5133 26.8519 48.9965 26.585C49.3124 26.4069 49.5452 26.1112 49.6441 25.7623C49.743 25.4135 49.7001 25.0396 49.5247 24.7222C49.3494 24.4048 49.0557 24.1696 48.7077 24.0677C48.3596 23.9657 47.9854 24.0055 47.6665 24.1781C46.7439 24.6887 45.9264 25.3695 45.2572 26.1844L39.7503 23L45.2559 19.8212C45.9251 20.6362 46.7426 21.317 47.6653 21.8275C47.8235 21.9167 47.9977 21.9736 48.178 21.9951C48.3583 22.0166 48.541 22.0021 48.7157 21.9526C48.8904 21.9031 49.0535 21.8194 49.1957 21.7065C49.3378 21.5936 49.4563 21.4537 49.5441 21.2948C49.6319 21.1359 49.6874 20.9611 49.7073 20.7807C49.7272 20.6002 49.7112 20.4176 49.6602 20.2434C49.6092 20.0691 49.5241 19.9067 49.41 19.7655C49.2959 19.6243 49.155 19.5071 48.9953 19.4206C48.5122 19.1535 48.0712 18.8166 47.6866 18.4206L49.8116 17.1931C49.9741 17.1062 50.1175 16.9875 50.2333 16.8441C50.349 16.7007 50.4348 16.5354 50.4854 16.3582C50.536 16.181 50.5505 15.9954 50.5279 15.8124C50.5054 15.6295 50.4463 15.453 50.3542 15.2933C50.2621 15.1337 50.1388 14.9942 49.9917 14.8831C49.8446 14.7721 49.6766 14.6917 49.4979 14.6469C49.3191 14.602 49.1331 14.5936 48.951 14.622C48.7689 14.6505 48.5944 14.7153 48.4378 14.8125L46.3128 16.0394C46.1614 15.5081 46.0894 14.9573 46.099 14.405C46.103 14.2241 46.0713 14.0442 46.0056 13.8756C45.9399 13.707 45.8416 13.5531 45.7163 13.4225C45.591 13.292 45.4412 13.1875 45.2754 13.115C45.1096 13.0425 44.9312 13.0034 44.7503 13H44.7247C44.3644 12.9999 44.0185 13.1413 43.7614 13.3936C43.5042 13.646 43.3564 13.9892 43.3497 14.3494C43.3303 15.4031 43.5106 16.4509 43.8809 17.4375L38.3753 20.6181V14.2613C39.4156 14.0893 40.4138 13.7218 41.3172 13.1781C41.6296 12.9899 41.8544 12.6853 41.9422 12.3313C42.0299 11.9774 41.9735 11.603 41.7853 11.2906C41.5971 10.9782 41.2925 10.7534 40.9385 10.6656C40.5845 10.5779 40.2102 10.6343 39.8978 10.8225C39.4242 11.1071 38.9112 11.32 38.3753 11.4544V9.375C38.3753 9.01033 38.2304 8.66059 37.9726 8.40273C37.7147 8.14487 37.365 8 37.0003 8C36.6356 8 36.2859 8.14487 36.028 8.40273C35.7702 8.66059 35.6253 9.01033 35.6253 9.375V11.4544C35.0894 11.32 34.5764 11.1071 34.1028 10.8225C33.7904 10.6343 33.4161 10.5779 33.0621 10.6656C32.7081 10.7534 32.4035 10.9782 32.2153 11.2906C32.0271 11.603 31.9707 11.9774 32.0584 12.3313C32.1462 12.6853 32.371 12.9899 32.6834 13.1781C33.5868 13.7218 34.585 14.0893 35.6253 14.2613V20.6181L30.1197 17.4375C30.4906 16.4506 30.6713 15.4023 30.6522 14.3481C30.6455 13.9879 30.4976 13.6447 30.2405 13.3924C29.9834 13.14 29.6374 12.9987 29.2772 12.9988H29.2503C29.0697 13.0021 28.8916 13.041 28.726 13.1132C28.5605 13.1854 28.4108 13.2895 28.2855 13.4195C28.1602 13.5496 28.0617 13.7031 27.9957 13.8712C27.9297 14.0393 27.8975 14.2188 27.9009 14.3994C27.911 14.9525 27.8392 15.5041 27.6878 16.0363L25.5628 14.8125C25.4063 14.7192 25.2328 14.6578 25.0525 14.6321C24.8721 14.6064 24.6884 14.6168 24.512 14.6627C24.3357 14.7086 24.1702 14.7891 24.0253 14.8995C23.8803 15.0099 23.7588 15.148 23.6677 15.3058C23.5765 15.4636 23.5177 15.6379 23.4945 15.8187C23.4714 15.9994 23.4844 16.1829 23.5328 16.3586C23.5812 16.5342 23.664 16.6985 23.7765 16.8419C23.8889 16.9853 24.0287 17.1049 24.1878 17.1938L26.3128 18.4213C25.9282 18.8172 25.4872 19.1542 25.004 19.4213C24.8444 19.5077 24.7034 19.6249 24.5893 19.7661C24.4752 19.9073 24.3902 20.0697 24.3392 20.244C24.2881 20.4182 24.2721 20.6008 24.2921 20.7813C24.312 20.9618 24.3675 21.1365 24.4553 21.2954C24.5431 21.4543 24.6615 21.5943 24.8037 21.7072C24.9459 21.8201 25.109 21.9037 25.2837 21.9532C25.4583 22.0027 25.6411 22.0172 25.8214 21.9957C26.0017 21.9743 26.1759 21.9173 26.334 21.8281C27.2566 21.3175 28.0742 20.6368 28.7434 19.8219L34.2503 23L28.7447 26.1787C28.0754 25.3639 27.2579 24.6831 26.3353 24.1725C26.1771 24.0833 26.0029 24.0264 25.8226 24.0049C25.6423 23.9834 25.4596 23.9979 25.2849 24.0474C25.1102 24.0969 24.9471 24.1806 24.8049 24.2935C24.6628 24.4064 24.5443 24.5463 24.4565 24.7052C24.3687 24.8641 24.3132 25.0389 24.2933 25.2193C24.2734 25.3998 24.2894 25.5824 24.3404 25.7566C24.3914 25.9309 24.4765 26.0933 24.5906 26.2345C24.7047 26.3757 24.8456 26.4929 25.0053 26.5794C25.4884 26.8465 25.9294 27.1834 26.314 27.5794L24.1878 28.8125C24.0287 28.9014 23.8889 29.021 23.7765 29.1643C23.664 29.3077 23.5812 29.472 23.5328 29.6477C23.4844 29.8233 23.4714 30.0069 23.4945 30.1876C23.5177 30.3683 23.5765 30.5427 23.6677 30.7005C23.7588 30.8582 23.8803 30.9964 24.0253 31.1068C24.1702 31.2172 24.3357 31.2976 24.512 31.3435C24.6884 31.3894 24.8721 31.3998 25.0525 31.3741C25.2328 31.3484 25.4063 31.2871 25.5628 31.1938L27.6878 29.9669C27.8392 30.4982 27.9112 31.0489 27.9015 31.6012C27.8952 31.9655 28.0337 32.3174 28.2865 32.5797C28.5394 32.8419 28.886 32.9931 29.2503 33H29.2759C29.6362 33.0001 29.9821 32.8587 30.2392 32.6064C30.4964 32.354 30.6442 32.0108 30.6509 31.6506C30.6703 30.5969 30.49 29.5491 30.1197 28.5625L35.6253 25.3819V31.7388C34.585 31.9107 33.5868 32.2782 32.6834 32.8219C32.371 33.0101 32.1462 33.3147 32.0584 33.6687C31.9707 34.0226 32.0271 34.397 32.2153 34.7094C32.4035 35.0218 32.7081 35.2466 33.0621 35.3344C33.4161 35.4221 33.7904 35.3657 34.1028 35.1775C34.5764 34.8929 35.0894 34.68 35.6253 34.5456V36.625C35.6253 36.9897 35.7702 37.3394 36.028 37.5973C36.2859 37.8551 36.6356 38 37.0003 38C37.365 38 37.7147 37.8551 37.9726 37.5973C38.2304 37.3394 38.3753 36.9897 38.3753 36.625V34.5456C38.9112 34.68 39.4242 34.8929 39.8978 35.1775C40.2102 35.3657 40.5845 35.4221 40.9385 35.3344C41.2925 35.2466 41.5971 35.0218 41.7853 34.7094C41.9735 34.397 42.0299 34.0226 41.9422 33.6687C41.8544 33.3147 41.6296 33.0101 41.3172 32.8219C40.4138 32.2782 39.4156 31.9107 38.3753 31.7388V25.3819L43.8809 28.5625C43.51 29.5494 43.3293 30.5977 43.3484 31.6519C43.3551 32.0121 43.503 32.3553 43.7601 32.6076C44.0172 32.86 44.3631 33.0013 44.7234 33.0012H44.7503C44.9309 32.9979 45.109 32.959 45.2746 32.8868C45.4401 32.8146 45.5898 32.7105 45.7151 32.5805C45.8404 32.4504 45.9389 32.2969 46.0049 32.1288C46.0709 31.9607 46.1031 31.7812 46.0997 31.6006C46.0896 31.0475 46.1614 30.4959 46.3128 29.9638L48.4378 31.1906C48.5943 31.2911 48.7695 31.3588 48.9529 31.3896C49.1363 31.4204 49.324 31.4137 49.5047 31.3699C49.6855 31.3261 49.8554 31.246 50.0043 31.1347C50.1532 31.0233 50.278 30.8828 50.3711 30.7219C50.4642 30.5609 50.5236 30.3827 50.5459 30.1981C50.5681 30.0134 50.5527 29.8262 50.5005 29.6477C50.4483 29.4692 50.3604 29.3032 50.2422 29.1596C50.124 29.0161 49.9779 28.898 49.8128 28.8125Z" fill="#5E97D7"/>
<path d="M35.9087 42.5078V48.8359H34.8541V46.0938H33.5181V48.4609H32.4869V42.6953H33.5181V45.1797H34.8541V42.5078H35.9087ZM32.3931 48.9766C34.5728 48.9766 35.9556 49.7266 35.9673 50.9805C35.9556 52.2227 34.5728 52.9844 32.3931 52.9727C30.2017 52.9844 28.8306 52.2227 28.8423 50.9805C28.8306 49.7266 30.2017 48.9766 32.3931 48.9766ZM32.3931 49.8438C30.8697 49.8438 29.9322 50.2656 29.9439 50.9805C29.9322 51.6836 30.8697 52.0938 32.3931 52.0938C33.9166 52.0938 34.8423 51.6836 34.8541 50.9805C34.8423 50.2656 33.9166 49.8438 32.3931 49.8438ZM28.5611 43.3281V47.0312C29.6158 47.0137 30.6177 46.9434 31.8072 46.7148L31.9127 47.6289C30.5416 47.8984 29.4048 47.957 28.1392 47.957H27.4478V43.3281H28.5611ZM47.0327 47.6055V48.4961H37.4467V47.6055H41.7006V46.4922H38.642V42.9766H45.8491V43.8555H39.7436V45.6016H45.9194V46.4922H42.7787V47.6055H47.0327ZM42.228 49.1758C44.4897 49.1758 45.8491 49.8672 45.8491 51.0859C45.8491 52.3047 44.4897 52.9844 42.228 52.9961C39.9545 52.9844 38.5834 52.3047 38.5834 51.0859C38.5834 49.8672 39.9545 49.1758 42.228 49.1758ZM42.228 50.043C40.6225 50.043 39.7084 50.418 39.7084 51.0859C39.7084 51.7539 40.6225 52.1289 42.228 52.1172C43.81 52.1289 44.7358 51.7539 44.7358 51.0859C44.7358 50.418 43.81 50.043 42.228 50.043Z" fill="#5E97D7"/>
</svg>
