<svg width="75" height="64" viewBox="0 0 75 64" fill="none" xmlns="http://www.w3.org/2000/svg">
<path d="M46.6094 28.3594L45.0156 27.4387C45.304 27.1417 45.6348 26.8889 45.9972 26.6887C46.2341 26.5552 46.4086 26.3334 46.4828 26.0718C46.557 25.8101 46.5249 25.5297 46.3933 25.2917C46.2618 25.0536 46.0415 24.8772 45.7805 24.8007C45.5195 24.7243 45.2388 24.7541 44.9997 24.8836C44.3077 25.2666 43.6946 25.7771 43.1926 26.3883L39.0625 24L43.1917 21.6159C43.6936 22.2272 44.3067 22.7378 44.9987 23.1206C45.1173 23.1875 45.248 23.2302 45.3832 23.2463C45.5185 23.2624 45.6555 23.2516 45.7865 23.2144C45.9175 23.1773 46.0399 23.1146 46.1465 23.0299C46.2531 22.9452 46.3419 22.8403 46.4078 22.7211C46.4737 22.6019 46.5153 22.4709 46.5302 22.3355C46.5452 22.2002 46.5332 22.0632 46.4949 21.9325C46.4566 21.8018 46.3929 21.68 46.3073 21.5741C46.2217 21.4682 46.116 21.3803 45.9962 21.3155C45.6339 21.1152 45.3031 20.8624 45.0147 20.5655L46.6084 19.6448C46.7303 19.5797 46.8379 19.4906 46.9247 19.3831C47.0115 19.2755 47.0758 19.1516 47.1138 19.0186C47.1518 18.8857 47.1626 18.7465 47.1457 18.6093C47.1288 18.4721 47.0845 18.3397 47.0154 18.22C46.9463 18.1003 46.8538 17.9956 46.7435 17.9123C46.6332 17.8291 46.5072 17.7688 46.3732 17.7352C46.2391 17.7015 46.0996 17.6952 45.963 17.7165C45.8264 17.7379 45.6955 17.7864 45.5781 17.8594L43.9844 18.7795C43.8708 18.3811 43.8168 17.968 43.824 17.5538C43.827 17.4181 43.8032 17.2832 43.7539 17.1567C43.7047 17.0303 43.631 16.9148 43.537 16.8169C43.443 16.719 43.3306 16.6406 43.2063 16.5862C43.082 16.5319 42.9482 16.5026 42.8125 16.5H42.7933C42.5231 16.5 42.2636 16.606 42.0708 16.7952C41.8779 16.9845 41.767 17.2419 41.762 17.512C41.7475 18.3023 41.8827 19.0882 42.1604 19.8281L38.0312 22.2136V17.4459C38.8114 17.317 39.5601 17.0413 40.2376 16.6336C40.4719 16.4924 40.6405 16.264 40.7064 15.9985C40.7722 15.733 40.7299 15.4523 40.5887 15.218C40.4476 14.9837 40.2191 14.8151 39.9536 14.7492C39.6882 14.6834 39.4074 14.7257 39.1731 14.8669C38.8179 15.0803 38.4331 15.24 38.0312 15.3408V13.7812C38.0312 13.5077 37.9226 13.2454 37.7292 13.052C37.5358 12.8586 37.2735 12.75 37 12.75C36.7265 12.75 36.4642 12.8586 36.2708 13.052C36.0774 13.2454 35.9687 13.5077 35.9687 13.7812V15.3408C35.5668 15.24 35.182 15.0803 34.8269 14.8669C34.5926 14.7257 34.3118 14.6834 34.0463 14.7492C33.7808 14.8151 33.5524 14.9837 33.4112 15.218C33.2701 15.4523 33.2277 15.733 33.2936 15.9985C33.3594 16.264 33.528 16.4924 33.7623 16.6336C34.4399 17.0413 35.1885 17.317 35.9687 17.4459V22.2136L31.8395 19.8281C32.1177 19.0879 32.2532 18.3017 32.2389 17.5111C32.2339 17.2409 32.123 16.9835 31.9301 16.7943C31.7373 16.605 31.4778 16.499 31.2076 16.4991H31.1875C31.052 16.5016 30.9184 16.5307 30.7943 16.5849C30.6701 16.639 30.5578 16.7171 30.4639 16.8146C30.3699 16.9122 30.296 17.0273 30.2465 17.1534C30.1971 17.2795 30.1729 17.4141 30.1754 17.5495C30.183 17.9644 30.1292 18.3781 30.0156 18.7772L28.4219 17.8594C28.3045 17.7894 28.1744 17.7434 28.0391 17.7241C27.9038 17.7048 27.766 17.7126 27.6338 17.747C27.5015 17.7815 27.3774 17.8418 27.2687 17.9246C27.16 18.0074 27.0688 18.111 27.0005 18.2293C26.9322 18.3477 26.888 18.4784 26.8707 18.614C26.8533 18.7495 26.863 18.8872 26.8993 19.0189C26.9356 19.1507 26.9978 19.2739 27.0821 19.3814C27.1664 19.489 27.2713 19.5787 27.3906 19.6453L28.9844 20.5659C28.6959 20.8629 28.3651 21.1156 28.0028 21.3159C27.8831 21.3808 27.7773 21.4687 27.6917 21.5746C27.6062 21.6805 27.5424 21.8023 27.5041 21.933C27.4659 22.0637 27.4539 22.2006 27.4688 22.336C27.4838 22.4713 27.5254 22.6024 27.5912 22.7215C27.6571 22.8407 27.7459 22.9457 27.8525 23.0304C27.9592 23.115 28.0815 23.1778 28.2125 23.2149C28.3435 23.2521 28.4806 23.2629 28.6158 23.2468C28.751 23.2307 28.8817 23.188 29.0003 23.1211C29.6922 22.7381 30.3054 22.2276 30.8073 21.6164L34.9375 24L30.8083 26.3841C30.3063 25.7729 29.6932 25.2623 29.0012 24.8794C28.8826 24.8125 28.7519 24.7698 28.6167 24.7537C28.4815 24.7376 28.3444 24.7484 28.2134 24.7856C28.0824 24.8227 27.9601 24.8854 27.8535 24.9701C27.7468 25.0548 27.658 25.1597 27.5922 25.2789C27.5263 25.3981 27.4847 25.5291 27.4697 25.6645C27.4548 25.7998 27.4668 25.9368 27.5051 26.0675C27.5433 26.1982 27.6071 26.32 27.6927 26.4259C27.7783 26.5318 27.884 26.6197 28.0037 26.6845C28.3661 26.8848 28.6968 27.1376 28.9853 27.4345L27.3906 28.3594C27.2713 28.426 27.1664 28.5157 27.0821 28.6233C26.9978 28.7308 26.9356 28.854 26.8993 28.9858C26.863 29.1175 26.8533 29.2551 26.8707 29.3907C26.888 29.5262 26.9322 29.657 27.0005 29.7753C27.0688 29.8937 27.16 29.9973 27.2687 30.0801C27.3774 30.1629 27.5015 30.2232 27.6338 30.2577C27.766 30.2921 27.9038 30.2999 28.0391 30.2806C28.1744 30.2613 28.3045 30.2153 28.4219 30.1453L30.0156 29.2252C30.1291 29.6236 30.1832 30.0367 30.1759 30.4509C30.1711 30.7241 30.275 30.9881 30.4647 31.1847C30.6543 31.3814 30.9143 31.4948 31.1875 31.5H31.2067C31.4769 31.5 31.7363 31.394 31.9292 31.2048C32.122 31.0155 32.2329 30.7581 32.2379 30.488C32.2525 29.6977 32.1173 28.9118 31.8395 28.1719L35.9687 25.7864V30.5541C35.1885 30.683 34.4399 30.9587 33.7623 31.3664C33.528 31.5076 33.3594 31.736 33.2936 32.0015C33.2277 32.267 33.2701 32.5478 33.4112 32.782C33.5524 33.0163 33.7808 33.1849 34.0463 33.2508C34.3118 33.3166 34.5926 33.2743 34.8269 33.1331C35.182 32.9197 35.5668 32.76 35.9687 32.6592V34.2188C35.9687 34.4923 36.0774 34.7546 36.2708 34.948C36.4642 35.1413 36.7265 35.25 37 35.25C37.2735 35.25 37.5358 35.1413 37.7292 34.948C37.9226 34.7546 38.0312 34.4923 38.0312 34.2188V32.6592C38.4331 32.76 38.8179 32.9197 39.1731 33.1331C39.4074 33.2743 39.6882 33.3166 39.9536 33.2508C40.2191 33.1849 40.4476 33.0163 40.5887 32.782C40.7299 32.5478 40.7722 32.267 40.7064 32.0015C40.6405 31.736 40.4719 31.5076 40.2376 31.3664C39.5601 30.9587 38.8114 30.683 38.0312 30.5541V25.7864L42.1604 28.1719C41.8822 28.9121 41.7467 29.6983 41.7611 30.4889C41.7661 30.7591 41.877 31.0165 42.0698 31.2057C42.2627 31.395 42.5221 31.501 42.7923 31.5009H42.8125C42.9479 31.4984 43.0815 31.4693 43.2057 31.4151C43.3298 31.361 43.4421 31.2829 43.5361 31.1854C43.6301 31.0878 43.7039 30.9727 43.7534 30.8466C43.8029 30.7205 43.8271 30.5859 43.8245 30.4505C43.8169 30.0356 43.8708 29.6219 43.9844 29.2228L45.5781 30.143C45.6955 30.2183 45.8269 30.2691 45.9644 30.2922C46.102 30.3153 46.2428 30.3103 46.3783 30.2774C46.5139 30.2446 46.6413 30.1845 46.753 30.101C46.8647 30.0175 46.9583 29.9121 47.0281 29.7914C47.0979 29.6707 47.1425 29.537 47.1591 29.3985C47.1758 29.2601 47.1642 29.1197 47.1251 28.9858C47.086 28.8519 47.0201 28.7274 46.9314 28.6197C46.8428 28.5121 46.7332 28.4235 46.6094 28.3594Z" fill="#5E97D7"/>
<path d="M34.6009 40.028H35.8009V46.616H34.6009V40.028ZM33.0049 42.788H34.9249V43.808H33.0049V42.788ZM32.1649 40.232H33.3409V46.244H32.1649V40.232ZM32.1409 46.76C32.9009 46.76 33.5569 46.844 34.1089 47.012C34.6609 47.18 35.0889 47.424 35.3929 47.744C35.6969 48.056 35.8489 48.432 35.8489 48.872C35.8489 49.312 35.6969 49.688 35.3929 50C35.0889 50.312 34.6609 50.552 34.1089 50.72C33.5569 50.888 32.9009 50.972 32.1409 50.972C31.3889 50.972 30.7329 50.888 30.1729 50.72C29.6209 50.552 29.1929 50.312 28.8889 50C28.5849 49.688 28.4329 49.312 28.4329 48.872C28.4329 48.432 28.5849 48.056 28.8889 47.744C29.1929 47.424 29.6209 47.18 30.1729 47.012C30.7329 46.844 31.3889 46.76 32.1409 46.76ZM32.1409 47.756C31.6289 47.756 31.1889 47.8 30.8209 47.888C30.4609 47.968 30.1809 48.092 29.9809 48.26C29.7809 48.428 29.6809 48.632 29.6809 48.872C29.6809 49.112 29.7809 49.316 29.9809 49.484C30.1809 49.644 30.4609 49.768 30.8209 49.856C31.1889 49.944 31.6289 49.988 32.1409 49.988C32.6529 49.988 33.0889 49.944 33.4489 49.856C33.8169 49.768 34.0969 49.644 34.2889 49.484C34.4889 49.316 34.5889 49.112 34.5889 48.872C34.5889 48.632 34.4889 48.428 34.2889 48.26C34.0969 48.092 33.8169 47.968 33.4489 47.888C33.0889 47.8 32.6529 47.756 32.1409 47.756ZM27.0049 40.892H28.2529V45.08H27.0049V40.892ZM27.0049 44.72H27.7249C28.3649 44.72 28.9809 44.7 29.5729 44.66C30.1729 44.62 30.8089 44.532 31.4809 44.396L31.6129 45.428C30.9169 45.564 30.2609 45.656 29.6449 45.704C29.0289 45.744 28.3889 45.764 27.7249 45.764H27.0049V44.72ZM37.564 45.32H47.476V46.328H37.564V45.32ZM41.884 43.604H43.132V45.716H41.884V43.604ZM38.788 43.208H46.324V44.216H38.788V43.208ZM38.788 40.508H46.264V41.504H40.036V43.832H38.788V40.508ZM42.484 47C43.668 47 44.592 47.176 45.256 47.528C45.928 47.872 46.264 48.36 46.264 48.992C46.264 49.632 45.928 50.124 45.256 50.468C44.592 50.812 43.668 50.984 42.484 50.984C41.316 50.984 40.396 50.812 39.724 50.468C39.052 50.124 38.716 49.632 38.716 48.992C38.716 48.36 39.052 47.872 39.724 47.528C40.396 47.176 41.316 47 42.484 47ZM42.484 47.972C41.956 47.972 41.504 48.012 41.128 48.092C40.752 48.172 40.464 48.288 40.264 48.44C40.072 48.584 39.976 48.768 39.976 48.992C39.976 49.216 40.072 49.408 40.264 49.568C40.464 49.72 40.752 49.836 41.128 49.916C41.504 49.988 41.956 50.024 42.484 50.024C43.028 50.024 43.484 49.988 43.852 49.916C44.228 49.836 44.512 49.72 44.704 49.568C44.896 49.408 44.992 49.216 44.992 48.992C44.992 48.768 44.896 48.584 44.704 48.44C44.512 48.288 44.228 48.172 43.852 48.092C43.484 48.012 43.028 47.972 42.484 47.972Z" fill="#5E97D7"/>
</svg>
