<svg width="75" height="64" viewBox="0 0 75 64" fill="none" xmlns="http://www.w3.org/2000/svg">
<path d="M31 31H34V26C34 25.7167 34.096 25.4793 34.288 25.288C34.48 25.0967 34.7173 25.0007 35 25H39C39.2833 25 39.521 25.096 39.713 25.288C39.905 25.48 40.0007 25.7173 40 26V31H43V22L37 17.5L31 22V31ZM29 31V22C29 21.6833 29.071 21.3833 29.213 21.1C29.355 20.8167 29.5507 20.5833 29.8 20.4L35.8 15.9C36.15 15.6333 36.55 15.5 37 15.5C37.45 15.5 37.85 15.6333 38.2 15.9L44.2 20.4C44.45 20.5833 44.646 20.8167 44.788 21.1C44.93 21.3833 45.0007 21.6833 45 22V31C45 31.55 44.804 32.021 44.412 32.413C44.02 32.805 43.5493 33.0007 43 33H39C38.7167 33 38.4793 32.904 38.288 32.712C38.0967 32.52 38.0007 32.2827 38 32V27H36V32C36 32.2833 35.904 32.521 35.712 32.713C35.52 32.905 35.2827 33.0007 35 33H31C30.45 33 29.9793 32.8043 29.588 32.413C29.1967 32.0217 29.0007 31.5507 29 31Z" fill="#5E97D7"/>
<path d="M33.2205 47.696H40.7445V50.852H33.2205V47.696ZM39.5085 48.632H34.4445V49.916H39.5085V48.632ZM32.5245 40.868H41.3925V41.828H32.5245V40.868ZM36.9885 42.188C38.1405 42.188 39.0245 42.32 39.6405 42.584C40.2645 42.848 40.5765 43.236 40.5765 43.748C40.5765 44.26 40.2645 44.648 39.6405 44.912C39.0245 45.176 38.1405 45.308 36.9885 45.308C35.8365 45.308 34.9485 45.176 34.3245 44.912C33.7005 44.648 33.3885 44.26 33.3885 43.748C33.3885 43.236 33.7005 42.848 34.3245 42.584C34.9485 42.32 35.8365 42.188 36.9885 42.188ZM36.9885 43.052C36.2445 43.052 35.6805 43.112 35.2965 43.232C34.9205 43.344 34.7325 43.516 34.7325 43.748C34.7325 43.98 34.9205 44.156 35.2965 44.276C35.6805 44.388 36.2445 44.444 36.9885 44.444C37.7325 44.444 38.2925 44.388 38.6685 44.276C39.0525 44.156 39.2445 43.98 39.2445 43.748C39.2445 43.516 39.0525 43.344 38.6685 43.232C38.2925 43.112 37.7325 43.052 36.9885 43.052ZM36.3645 39.896H37.6125V41.528H36.3645V39.896ZM32.0325 46.004H41.9445V46.976H32.0325V46.004ZM36.3645 45.008H37.6125V46.532H36.3645V45.008Z" fill="#5E97D7"/>
</svg>
