<svg width="75" height="64" viewBox="0 0 75 64" fill="none" xmlns="http://www.w3.org/2000/svg">
<path d="M28.9997 32.3334H32.9997V25.6667C32.9997 25.289 33.1277 24.9725 33.3837 24.7174C33.6397 24.4623 33.9561 24.3343 34.333 24.3334H39.6663C40.0441 24.3334 40.361 24.4614 40.617 24.7174C40.873 24.9734 41.0006 25.2899 40.9997 25.6667V32.3334H44.9997V20.3334L36.9997 14.3334L28.9997 20.3334V32.3334ZM26.333 32.3334V20.3334C26.333 19.9112 26.4277 19.5112 26.617 19.1334C26.8063 18.7556 27.0672 18.4445 27.3997 18.2001L35.3997 12.2001C35.8663 11.8445 36.3997 11.6667 36.9997 11.6667C37.5997 11.6667 38.133 11.8445 38.5997 12.2001L46.5997 18.2001C46.933 18.4445 47.1943 18.7556 47.3837 19.1334C47.573 19.5112 47.6672 19.9112 47.6663 20.3334V32.3334C47.6663 33.0667 47.405 33.6947 46.8823 34.2174C46.3597 34.7401 45.7321 35.001 44.9997 35.0001H39.6663C39.2886 35.0001 38.9721 34.8721 38.717 34.6161C38.4619 34.3601 38.3339 34.0436 38.333 33.6667V27.0001H35.6663V33.6667C35.6663 34.0445 35.5383 34.3614 35.2823 34.6174C35.0263 34.8734 34.7099 35.001 34.333 35.0001H28.9997C28.2663 35.0001 27.6388 34.7392 27.117 34.2174C26.5952 33.6956 26.3339 33.0676 26.333 32.3334Z" fill="#5E97D7"/>
<path d="M40.6035 49.832V52.8672H33.3496V49.832H40.6035ZM34.4512 50.6875V52.0117H39.5254V50.6875H34.4512ZM41.2363 43.3281V44.1836H32.6934V43.3281H36.4316V42.3555H37.5449V43.3281H41.2363ZM36.9824 44.5586C39.1973 44.5586 40.4277 45.0625 40.4277 46.0469C40.4277 46.9434 39.4023 47.4414 37.5449 47.5234V48.2383H41.7754V49.1172H32.2012V48.2383H36.4316V47.5234C34.5742 47.4414 33.5254 46.9434 33.5371 46.0469C33.5254 45.0625 34.7793 44.5586 36.9824 44.5586ZM36.9824 45.3203C35.5176 45.332 34.7207 45.5664 34.7207 46.0469C34.7207 46.5156 35.5176 46.7734 36.9824 46.7734C38.459 46.7734 39.2441 46.5156 39.2441 46.0469C39.2441 45.5664 38.459 45.332 36.9824 45.3203Z" fill="#5E97D7"/>
</svg>
