<svg width="75" height="64" viewBox="0 0 75 64" fill="none" xmlns="http://www.w3.org/2000/svg">
<path d="M41.0001 21.6668V21.6801M27.8974 18.1708C27.3126 17.7213 26.8635 17.1189 26.5996 16.4301C26.3358 15.7414 26.2675 14.9931 26.4024 14.2679C26.5372 13.5428 26.87 12.8691 27.3638 12.3212C27.8576 11.7733 28.4933 11.3727 29.2005 11.1635C29.9078 10.9543 30.6592 10.9448 31.3716 11.1359C32.0839 11.3271 32.7296 11.7114 33.2372 12.2466C33.7447 12.7817 34.0945 13.4468 34.2477 14.1683C34.4009 14.8897 34.3517 15.6395 34.1054 16.3348" stroke="#5E97D7" stroke-width="2" stroke-linecap="round" stroke-linejoin="round"/>
<path d="M42.333 12.3335V17.4042C43.9831 18.3591 45.2394 19.8701 45.877 21.6668H47.665C48.0186 21.6668 48.3578 21.8073 48.6078 22.0574C48.8579 22.3074 48.9984 22.6465 48.9984 23.0002V25.6668C48.9984 26.0205 48.8579 26.3596 48.6078 26.6096C48.3578 26.8597 48.0186 27.0002 47.665 27.0002H45.8757C45.4277 28.2668 44.6664 29.4002 43.665 30.2975V33.0002C43.665 33.5306 43.4543 34.0393 43.0792 34.4144C42.7042 34.7894 42.1955 35.0002 41.665 35.0002C41.1346 35.0002 40.6259 34.7894 40.2508 34.4144C39.8757 34.0393 39.665 33.5306 39.665 33.0002V32.2228C39.2245 32.2969 38.7784 32.3339 38.3317 32.3335H32.9984C32.5516 32.3339 32.1056 32.2969 31.665 32.2228V33.0002C31.665 33.5306 31.4543 34.0393 31.0792 34.4144C30.7042 34.7894 30.1955 35.0002 29.665 35.0002C29.1346 35.0002 28.6259 34.7894 28.2508 34.4144C27.8757 34.0393 27.665 33.5306 27.665 33.0002V30.2975C26.457 29.2175 25.6054 27.796 25.223 26.2213C24.8406 24.6466 24.9454 22.9929 25.5236 21.4791C26.1018 19.9653 27.126 18.6628 28.4608 17.7439C29.7956 16.8251 31.3779 16.3332 32.9984 16.3335H36.3317L42.333 12.3335Z" stroke="#5E97D7" stroke-width="2" stroke-linecap="round" stroke-linejoin="round"/>
<path d="M29.8898 42.4961V46.6797H31.5187V47.6055H29.8898V52.9844H28.7765V42.4961H29.8898ZM27.1476 43.5977C27.1359 46.6328 25.7999 49.3398 22.3429 51.0508L21.7218 50.1836C24.3527 48.8711 25.7823 46.9727 26.0109 44.5234H22.2491V43.5977H27.1476ZM41.2246 42.4961V52.9961H40.1699V42.4961H41.2246ZM39.0801 42.7656V52.4805H38.0254V48.9062H36.2324V47.9922H38.0254V46.2812H36.4082C35.8984 48.0449 34.7793 49.5742 32.7988 50.7578L32.1426 49.9609C34.3691 48.6367 35.4414 46.873 35.6348 44.7109H32.6582V43.7969H36.7363C36.7363 44.3359 36.6953 44.8574 36.6074 45.3672H38.0254V42.7656H39.0801ZM52.2899 48.6719V49.5508H48.0009V52.9961H46.911V49.5508H42.6805V48.6719H52.2899ZM44.9774 42.918V44.2891H49.9696V42.918H51.0829V47.4766H43.8759V42.918H44.9774ZM44.9774 46.5859H49.9696V45.1797H44.9774V46.5859Z" fill="#5E97D7"/>
</svg>
