<svg width="75" height="64" viewBox="0 0 75 64" fill="none" xmlns="http://www.w3.org/2000/svg">
<path d="M39.9998 22.9999V23.0099M30.1728 20.3779C29.7342 20.0408 29.3974 19.589 29.1995 19.0724C29.0016 18.5559 28.9504 17.9946 29.0515 17.4508C29.1527 16.9069 29.4022 16.4016 29.7726 15.9907C30.1429 15.5798 30.6197 15.2793 31.1502 15.1224C31.6806 14.9656 32.2441 14.9584 32.7784 15.1018C33.3127 15.2451 33.7969 15.5334 34.1776 15.9348C34.5583 16.3361 34.8206 16.8349 34.9355 17.376C35.0504 17.9171 35.0135 18.4795 34.8288 19.0009" stroke="#5E97D7" stroke-width="2" stroke-linecap="round" stroke-linejoin="round"/>
<path d="M41 16V19.803C42.2376 20.5192 43.1798 21.6525 43.658 23H44.999C45.2642 23 45.5186 23.1054 45.7061 23.2929C45.8937 23.4804 45.999 23.7348 45.999 24V26C45.999 26.2652 45.8937 26.5196 45.7061 26.7071C45.5186 26.8946 45.2642 27 44.999 27H43.657C43.321 27.95 42.75 28.8 41.999 29.473V31.5C41.999 31.8978 41.841 32.2794 41.5597 32.5607C41.2784 32.842 40.8968 33 40.499 33C40.1012 33 39.7197 32.842 39.4384 32.5607C39.157 32.2794 38.999 31.8978 38.999 31.5V30.917C38.6686 30.9725 38.3341 31.0003 37.999 31H33.999C33.6639 31.0003 33.3294 30.9725 32.999 30.917V31.5C32.999 31.8978 32.841 32.2794 32.5597 32.5607C32.2784 32.842 31.8968 33 31.499 33C31.1012 33 30.7197 32.842 30.4384 32.5607C30.157 32.2794 29.999 31.8978 29.999 31.5V29.473C29.093 28.663 28.4543 27.5969 28.1675 26.4159C27.8807 25.2348 27.9593 23.9946 28.393 22.8592C28.8266 21.7239 29.5948 20.747 30.5958 20.0578C31.5969 19.3687 32.7837 18.9998 33.999 19H36.499L41 16Z" stroke="#5E97D7" stroke-width="2" stroke-linecap="round" stroke-linejoin="round"/>
<path d="M28.2294 40.016H29.4894V50.984H28.2294V40.016ZM29.1654 44.348H31.1454V45.392H29.1654V44.348ZM25.3974 41.18H26.6214C26.6214 42.244 26.4574 43.26 26.1294 44.228C25.8094 45.188 25.2854 46.072 24.5574 46.88C23.8374 47.688 22.8774 48.392 21.6774 48.992L20.9814 48.032C21.9734 47.52 22.7934 46.936 23.4414 46.28C24.0974 45.624 24.5854 44.888 24.9054 44.072C25.2334 43.256 25.3974 42.36 25.3974 41.384V41.18ZM21.5334 41.18H26.0454V42.2H21.5334V41.18ZM36.2805 43.004H38.6085V44.012H36.2805V43.004ZM36.1965 45.74H38.5845V46.76H36.1965V45.74ZM40.2045 40.016H41.4045V50.984H40.2045V40.016ZM37.9725 40.28H39.1605V50.456H37.9725V40.28ZM35.5245 41.36H36.7245C36.7245 42.36 36.5965 43.304 36.3405 44.192C36.0845 45.072 35.6565 45.888 35.0565 46.64C34.4645 47.392 33.6725 48.068 32.6805 48.668L31.9605 47.768C32.8005 47.264 33.4805 46.7 34.0005 46.076C34.5285 45.452 34.9125 44.768 35.1525 44.024C35.4005 43.28 35.5245 42.476 35.5245 41.612V41.36ZM32.5005 41.36H35.9685V42.38H32.5005V41.36ZM43.0715 46.436H53.0075V47.444H43.0715V46.436ZM47.3795 46.928H48.6275V50.996H47.3795V46.928ZM44.2595 40.46H45.5195V41.84H50.5355V40.46H51.7715V45.248H44.2595V40.46ZM45.5195 42.836V44.24H50.5355V42.836H45.5195Z" fill="#5E97D7"/>
</svg>
