<svg width="75" height="64" viewBox="0 0 75 64" fill="none" xmlns="http://www.w3.org/2000/svg">
<path d="M29 30C29 28.9391 29.4214 27.9217 30.1716 27.1716C30.9217 26.4214 31.9391 26 33 26H41C42.0609 26 43.0783 26.4214 43.8284 27.1716C44.5786 27.9217 45 28.9391 45 30C45 30.5304 44.7893 31.0391 44.4142 31.4142C44.0391 31.7893 43.5304 32 43 32H31C30.4696 32 29.9609 31.7893 29.5858 31.4142C29.2107 31.0391 29 30.5304 29 30Z" stroke="#5E97D7" stroke-width="2" stroke-linejoin="round"/>
<path d="M37 22C38.6569 22 40 20.6569 40 19C40 17.3431 38.6569 16 37 16C35.3431 16 34 17.3431 34 19C34 20.6569 35.3431 22 37 22Z" stroke="#5E97D7" stroke-width="2"/>
<path d="M26.8969 41.084H32.0329V48.26H26.8969V41.084ZM30.7969 42.092H28.1329V47.264H30.7969V42.092ZM33.7489 40.028H35.0089V50.996H33.7489V40.028ZM34.7329 44.3H36.7129V45.344H34.7329V44.3ZM45.316 40.016H46.576V51.008H45.316V40.016ZM40.744 40.82C41.288 40.82 41.772 40.98 42.196 41.3C42.628 41.62 42.964 42.068 43.204 42.644C43.444 43.22 43.564 43.9 43.564 44.684C43.564 45.476 43.444 46.164 43.204 46.748C42.964 47.324 42.628 47.772 42.196 48.092C41.772 48.404 41.288 48.56 40.744 48.56C40.2 48.56 39.712 48.404 39.28 48.092C38.856 47.772 38.52 47.324 38.272 46.748C38.032 46.164 37.912 45.476 37.912 44.684C37.912 43.9 38.032 43.22 38.272 42.644C38.52 42.068 38.856 41.62 39.28 41.3C39.712 40.98 40.2 40.82 40.744 40.82ZM40.744 41.96C40.424 41.96 40.14 42.068 39.892 42.284C39.652 42.5 39.464 42.812 39.328 43.22C39.192 43.628 39.124 44.116 39.124 44.684C39.124 45.26 39.192 45.752 39.328 46.16C39.464 46.568 39.652 46.884 39.892 47.108C40.14 47.324 40.424 47.432 40.744 47.432C41.064 47.432 41.344 47.324 41.584 47.108C41.824 46.884 42.012 46.568 42.148 46.16C42.284 45.752 42.352 45.26 42.352 44.684C42.352 44.116 42.284 43.628 42.148 43.22C42.012 42.812 41.824 42.5 41.584 42.284C41.344 42.068 41.064 41.96 40.744 41.96Z" fill="#5E97D7"/>
</svg>
