<svg width="75" height="64" viewBox="0 0 75 64" fill="none" xmlns="http://www.w3.org/2000/svg">
<path d="M26.333 30.9998C26.333 29.5853 26.8949 28.2288 27.8951 27.2286C28.8953 26.2284 30.2519 25.6665 31.6663 25.6665H42.333C43.7475 25.6665 45.104 26.2284 46.1042 27.2286C47.1044 28.2288 47.6663 29.5853 47.6663 30.9998C47.6663 31.7071 47.3854 32.3854 46.8853 32.8855C46.3852 33.3856 45.7069 33.6665 44.9997 33.6665H28.9997C28.2924 33.6665 27.6142 33.3856 27.1141 32.8855C26.614 32.3854 26.333 31.7071 26.333 30.9998Z" stroke="#A7A7A7" stroke-width="2" stroke-linejoin="round"/>
<path d="M37 20.3333C39.2091 20.3333 41 18.5424 41 16.3333C41 14.1241 39.2091 12.3333 37 12.3333C34.7909 12.3333 33 14.1241 33 16.3333C33 18.5424 34.7909 20.3333 37 20.3333Z" stroke="#A7A7A7" stroke-width="2"/>
<path d="M32.2642 43.5391V50.3594H27.3541V43.5391H32.2642ZM28.4439 44.418V49.457H31.1627V44.418H28.4439ZM35.1353 42.4961V46.6094H36.8228V47.5469H35.1353V52.9961H34.022V42.4961H35.1353ZM46.142 42.4961V53.0195H45.0287V42.4961H46.142ZM40.5287 43.2812C42.0873 43.2812 43.2358 44.7109 43.2358 46.9609C43.2358 49.2227 42.0873 50.6523 40.5287 50.6523C38.9467 50.6523 37.81 49.2227 37.81 46.9609C37.81 44.7109 38.9467 43.2812 40.5287 43.2812ZM40.5287 44.2773C39.5561 44.2773 38.8881 45.3086 38.8881 46.9609C38.8881 48.625 39.5561 49.6562 40.5287 49.6562C41.4897 49.6562 42.1577 48.625 42.1577 46.9609C42.1577 45.3086 41.4897 44.2773 40.5287 44.2773Z" fill="#A7A7A7"/>
</svg>
