<svg width="75" height="64" viewBox="0 0 75 64" fill="none" xmlns="http://www.w3.org/2000/svg">
<g clip-path="url(#clip0_344_15124)">
<path d="M46.6699 18.62C46.5685 18.3757 46.3743 18.1815 46.1299 18.08C46.0097 18.0288 45.8806 18.0016 45.7499 18H40.7499C40.4847 18 40.2304 18.1054 40.0428 18.2929C39.8553 18.4804 39.7499 18.7348 39.7499 19C39.7499 19.2652 39.8553 19.5196 40.0428 19.7071C40.2304 19.8946 40.4847 20 40.7499 20H43.3399L37.7499 25.59L34.4599 22.29C34.367 22.1963 34.2564 22.1219 34.1345 22.0711C34.0127 22.0203 33.882 21.9942 33.7499 21.9942C33.6179 21.9942 33.4872 22.0203 33.3654 22.0711C33.2435 22.1219 33.1329 22.1963 33.0399 22.29L27.0399 28.29C26.9462 28.383 26.8718 28.4936 26.821 28.6154C26.7703 28.7373 26.7441 28.868 26.7441 29C26.7441 29.132 26.7703 29.2627 26.821 29.3846C26.8718 29.5064 26.9462 29.617 27.0399 29.71C27.1329 29.8037 27.2435 29.8781 27.3654 29.9289C27.4872 29.9797 27.6179 30.0058 27.7499 30.0058C27.882 30.0058 28.0127 29.9797 28.1345 29.9289C28.2564 29.8781 28.367 29.8037 28.4599 29.71L33.7499 24.41L37.0399 27.71C37.1329 27.8037 37.2435 27.8781 37.3654 27.9289C37.4872 27.9797 37.6179 28.0058 37.7499 28.0058C37.882 28.0058 38.0127 27.9797 38.1345 27.9289C38.2564 27.8781 38.367 27.8037 38.4599 27.71L44.7499 21.41V24C44.7499 24.2652 44.8553 24.5196 45.0428 24.7071C45.2304 24.8946 45.4847 25 45.7499 25C46.0152 25 46.2695 24.8946 46.457 24.7071C46.6446 24.5196 46.7499 24.2652 46.7499 24V19C46.7484 18.8693 46.7212 18.7402 46.6699 18.62Z" fill="#5E97D7"/>
</g>
<path d="M28.7814 40.016H30.0414V51.008H28.7814V40.016ZM21.6054 47.36H22.5414C23.1734 47.36 23.7774 47.352 24.3534 47.336C24.9374 47.312 25.5174 47.272 26.0934 47.216C26.6694 47.16 27.2654 47.084 27.8814 46.988L28.0014 48.008C27.0574 48.168 26.1534 48.276 25.2894 48.332C24.4254 48.38 23.5094 48.404 22.5414 48.404H21.6054V47.36ZM21.5814 41H26.7054V45.056H22.8774V47.756H21.6054V44.06H25.4214V42.02H21.5814V41ZM32.0325 48.656H41.9685V49.688H32.0325V48.656ZM36.3405 45.968H37.6005V49.112H36.3405V45.968ZM32.8485 41H41.0925V42.02H32.8485V41ZM32.8965 45.392H41.0685V46.4H32.8965V45.392ZM34.4685 41.828H35.7165V45.536H34.4685V41.828ZM38.2245 41.828H39.4725V45.536H38.2245V41.828ZM44.2955 45.812H51.9035V46.82H44.2955V45.812ZM43.0715 48.62H53.0075V49.652H43.0715V48.62ZM44.2955 40.904H51.8075V41.912H45.5675V46.112H44.2955V40.904ZM45.1835 43.328H51.5675V44.324H45.1835V43.328Z" fill="#5E97D7"/>
<defs>
<clipPath id="clip0_344_15124">
<rect width="24" height="24" fill="white" transform="translate(25 12)"/>
</clipPath>
</defs>
</svg>
