<svg width="75" height="64" viewBox="0 0 75 64" fill="none" xmlns="http://www.w3.org/2000/svg">
<g clip-path="url(#clip0_344_15124)">
<path d="M49.9769 15.8267C49.8416 15.5009 49.5827 15.242 49.2569 15.1067C49.0966 15.0383 48.9245 15.0021 48.7502 15H42.0836C41.73 15 41.3908 15.1405 41.1408 15.3905C40.8907 15.6406 40.7502 15.9797 40.7502 16.3333C40.7502 16.687 40.8907 17.0261 41.1408 17.2761C41.3908 17.5262 41.73 17.6667 42.0836 17.6667H45.5369L38.0836 25.12L33.6969 20.72C33.573 20.595 33.4255 20.4958 33.263 20.4281C33.1005 20.3605 32.9263 20.3256 32.7502 20.3256C32.5742 20.3256 32.4 20.3605 32.2375 20.4281C32.075 20.4958 31.9275 20.595 31.8036 20.72L23.8036 28.72C23.6786 28.844 23.5794 28.9914 23.5117 29.1539C23.444 29.3164 23.4092 29.4907 23.4092 29.6667C23.4092 29.8427 23.444 30.017 23.5117 30.1794C23.5794 30.3419 23.6786 30.4894 23.8036 30.6133C23.9275 30.7383 24.075 30.8375 24.2375 30.9052C24.4 30.9729 24.5742 31.0077 24.7502 31.0077C24.9263 31.0077 25.1005 30.9729 25.263 30.9052C25.4255 30.8375 25.573 30.7383 25.6969 30.6133L32.7502 23.5467L37.1369 27.9467C37.2609 28.0716 37.4083 28.1708 37.5708 28.2385C37.7333 28.3062 37.9076 28.3411 38.0836 28.3411C38.2596 28.3411 38.4339 28.3062 38.5963 28.2385C38.7588 28.1708 38.9063 28.0716 39.0302 27.9467L47.4169 19.5467V23C47.4169 23.3536 47.5574 23.6928 47.8074 23.9428C48.0575 24.1929 48.3966 24.3333 48.7502 24.3333C49.1039 24.3333 49.443 24.1929 49.6931 23.9428C49.9431 23.6928 50.0836 23.3536 50.0836 23V16.3333C50.0815 16.1591 50.0452 15.987 49.9769 15.8267Z" fill="#5E97D7"/>
</g>
<path d="M30.4288 42.4961V53.0195H29.3155V42.4961H30.4288ZM27.2179 43.4453V47.2773H23.4445V49.5742C25.1437 49.5684 26.632 49.4922 28.3898 49.1992L28.4952 50.1133C26.632 50.4297 25.0499 50.5 23.1984 50.5H22.3077V46.3867H26.0812V44.3477H22.296V43.4453H27.2179ZM41.8105 50.793V51.7422H32.2012V50.793H36.4199V48.5547H33.0449V47.6758H34.6152V44.3711H33.0215V43.4688H40.9316V44.3711H39.3262V47.6758H40.8965V48.5547H37.5215V50.793H41.8105ZM35.7168 47.6758H38.2363V44.3711H35.7168V47.6758ZM51.2118 48.0859V48.9766H43.8993V43.3633H51.1063V44.2656H45.0243V45.6836H50.8837V46.5625H45.0243V48.0859H51.2118ZM52.3016 50.7578V51.6719H42.6923V50.7578H52.3016Z" fill="#5E97D7"/>
<defs>
<clipPath id="clip0_344_15124">
<rect width="32" height="32" fill="white" transform="translate(21 7)"/>
</clipPath>
</defs>
</svg>
