<svg width="24" height="24" viewBox="0 0 24 24" fill="none" xmlns="http://www.w3.org/2000/svg">
<path d="M21.6601 9.41233C23.0881 14.7463 19.9231 20.2303 14.5881 21.6593C9.99008 22.8913 5.28408 20.7093 3.15508 16.6693C3.03149 16.4346 3.0062 16.1604 3.08478 15.907C3.16336 15.6537 3.33937 15.4419 3.57408 15.3183C3.8088 15.1947 4.083 15.1694 4.33636 15.248C4.58972 15.3266 4.80149 15.5026 4.92508 15.7373C5.78201 17.3598 7.17063 18.6384 8.85818 19.3588C10.5457 20.0792 12.4296 20.1976 14.1941 19.6942C15.9586 19.1907 17.4963 18.096 18.5497 16.5936C19.603 15.0911 20.1078 13.2722 19.9795 11.4418C19.8512 9.61145 19.0976 7.88079 17.845 6.53996C16.5924 5.19913 14.917 4.32964 13.0995 4.07723C11.2821 3.82483 9.43313 4.20485 7.86256 5.1536C6.292 6.10236 5.09531 7.56216 4.47308 9.28833L5.53008 9.05333C6.71608 8.78833 7.39208 10.3593 6.38408 11.0383L3.71108 12.8403C2.99308 13.3233 1.99108 12.8243 1.99808 11.9223C2.01557 9.73429 2.75023 7.61239 4.08942 5.88196C5.4286 4.15153 7.29839 2.9081 9.41208 2.34233C14.7461 0.910327 20.2301 4.07633 21.6591 9.41033M12.0001 6.00033C12.2653 6.00033 12.5197 6.10568 12.7072 6.29322C12.8947 6.48076 13.0001 6.73511 13.0001 7.00033V8.00033H15.0001C15.2653 8.00033 15.5197 8.10568 15.7072 8.29322C15.8947 8.48076 16.0001 8.73511 16.0001 9.00033C16.0001 9.26554 15.8947 9.5199 15.7072 9.70743C15.5197 9.89497 15.2653 10.0003 15.0001 10.0003H10.0001C9.86747 10.0003 9.7403 10.053 9.64653 10.1468C9.55276 10.2405 9.50008 10.3677 9.50008 10.5003C9.50008 10.6329 9.55276 10.7601 9.64653 10.8539C9.7403 10.9476 9.86747 11.0003 10.0001 11.0003H14.0001C14.6631 11.0003 15.299 11.2637 15.7678 11.7326C16.2367 12.2014 16.5001 12.8373 16.5001 13.5003C16.5001 14.1634 16.2367 14.7993 15.7678 15.2681C15.299 15.7369 14.6631 16.0003 14.0001 16.0003H13.0001V17.0003C13.0001 17.2655 12.8947 17.5199 12.7072 17.7074C12.5197 17.895 12.2653 18.0003 12.0001 18.0003C11.7349 18.0003 11.4805 17.895 11.293 17.7074C11.1054 17.5199 11.0001 17.2655 11.0001 17.0003V16.0003H9.00008C8.73487 16.0003 8.48051 15.895 8.29298 15.7074C8.10544 15.5199 8.00008 15.2655 8.00008 15.0003C8.00008 14.7351 8.10544 14.4808 8.29298 14.2932C8.48051 14.1057 8.73487 14.0003 9.00008 14.0003H14.0001C14.1327 14.0003 14.2599 13.9476 14.3536 13.8539C14.4474 13.7601 14.5001 13.6329 14.5001 13.5003C14.5001 13.3677 14.4474 13.2405 14.3536 13.1468C14.2599 13.053 14.1327 13.0003 14.0001 13.0003H10.0001C9.33704 13.0003 8.70116 12.7369 8.23232 12.2681C7.76348 11.7993 7.50008 11.1634 7.50008 10.5003C7.50008 9.83729 7.76348 9.2014 8.23232 8.73256C8.70116 8.26372 9.33704 8.00033 10.0001 8.00033H11.0001V7.00033C11.0001 6.73511 11.1054 6.48076 11.293 6.29322C11.4805 6.10568 11.7349 6.00033 12.0001 6.00033Z" fill="black"/>
</svg>
