<svg width="24" height="24" viewBox="0 0 24 24" fill="none" xmlns="http://www.w3.org/2000/svg">
<path d="M15 16H18C18.2833 16 18.521 15.904 18.713 15.712C18.905 15.52 19.0007 15.2827 19 15V9C19 8.71667 18.904 8.47933 18.712 8.288C18.52 8.09667 18.2827 8.00067 18 8H15C14.7167 8 14.4793 8.096 14.288 8.288C14.0967 8.48 14.0007 8.71733 14 9V15C14 15.2833 14.096 15.521 14.288 15.713C14.48 15.905 14.7173 16.0007 15 16ZM16 14V10H17V14H16ZM9 16H12C12.2833 16 12.521 15.904 12.713 15.712C12.905 15.52 13.0007 15.2827 13 15V9C13 8.71667 12.904 8.47933 12.712 8.288C12.52 8.09667 12.2827 8.00067 12 8H9C8.71667 8 8.47933 8.096 8.288 8.288C8.09667 8.48 8.00067 8.71733 8 9V15C8 15.2833 8.096 15.521 8.288 15.713C8.48 15.905 8.71733 16.0007 9 16ZM10 14V10H11V14H10ZM5 16H7V8H5V16ZM2 20V4H22V20H2Z" fill="black"/>
</svg>
