<svg width="24" height="24" viewBox="0 0 24 24" fill="none" xmlns="http://www.w3.org/2000/svg">
<path d="M18 2.40039C21.315 2.40039 24 5.08539 24 8.40039V16.8004C24 18.1241 22.9238 19.2004 21.6 19.2004H21.39C20.895 20.5991 19.5675 21.6004 18 21.6004C16.4325 21.6004 15.1013 20.5991 14.61 19.2004H9.39375C8.89875 20.5991 7.5675 21.6004 6.00375 21.6004C4.44 21.6004 3.10875 20.5991 2.61375 19.2004H2.4C1.07625 19.2004 0 18.1241 0 16.8004V6.00039C0 4.01289 1.6125 2.40039 3.6 2.40039H18ZM6 16.2004C5.00625 16.2004 4.2 17.0066 4.2 18.0004C4.2 18.9941 5.00625 19.8004 6 19.8004C6.99375 19.8004 7.8 18.9941 7.8 18.0004C7.8 17.0066 6.99375 16.2004 6 16.2004ZM18 16.2004C17.0063 16.2004 16.2 17.0066 16.2 18.0004C16.2 18.9941 17.0063 19.8004 18 19.8004C18.9938 19.8004 19.8 18.9941 19.8 18.0004C19.8 17.0066 18.9938 16.2004 18 16.2004ZM18 4.80039C17.3363 4.80039 16.8 5.33664 16.8 6.00039V13.2004C16.8 13.8641 17.3363 14.4004 18 14.4004H20.4C21.0638 14.4004 21.6 13.8641 21.6 13.2004V8.40039C21.6 6.41289 19.9875 4.80039 18 4.80039ZM9.3 10.8004H13.2C13.8638 10.8004 14.4 10.2641 14.4 9.60039V6.00039C14.4 5.33664 13.8638 4.80039 13.2 4.80039H9.3V10.8004ZM3.6 4.80039C2.93625 4.80039 2.4 5.33664 2.4 6.00039V9.60039C2.4 10.2641 2.93625 10.8004 3.6 10.8004H7.5V4.80039H3.6Z" fill="#242424"/>
</svg>
