<svg width="45" height="31" viewBox="0 0 45 31" fill="none" xmlns="http://www.w3.org/2000/svg">
<path d="M22.5 16.7913C23.5355 16.7913 24.375 16.213 24.375 15.4997C24.375 14.7863 23.5355 14.208 22.5 14.208C21.4645 14.208 20.625 14.7863 20.625 15.4997C20.625 16.213 21.4645 16.7913 22.5 16.7913Z" stroke="#B3B3B3" stroke-width="4" stroke-linecap="round" stroke-linejoin="round"/>
<path d="M35.625 16.7913C36.6605 16.7913 37.5 16.213 37.5 15.4997C37.5 14.7863 36.6605 14.208 35.625 14.208C34.5895 14.208 33.75 14.7863 33.75 15.4997C33.75 16.213 34.5895 16.7913 35.625 16.7913Z" stroke="#B3B3B3" stroke-width="4" stroke-linecap="round" stroke-linejoin="round"/>
<path d="M9.375 16.7913C10.4105 16.7913 11.25 16.213 11.25 15.4997C11.25 14.7863 10.4105 14.208 9.375 14.208C8.33947 14.208 7.5 14.7863 7.5 15.4997C7.5 16.213 8.33947 16.7913 9.375 16.7913Z" stroke="#B3B3B3" stroke-width="4" stroke-linecap="round" stroke-linejoin="round"/>
</svg>
