<svg width="24" height="24" viewBox="0 0 24 24" fill="none" xmlns="http://www.w3.org/2000/svg">
<path d="M12 11.9L13.875 13.8C14.075 14 14.3127 14.1 14.588 14.1C14.8633 14.1 15.1007 14 15.3 13.8C15.4993 13.6 15.5993 13.3627 15.6 13.088C15.6007 12.8133 15.5007 12.5757 15.3 12.375L13.4 10.5L15.3 8.625C15.5 8.425 15.6 8.18767 15.6 7.913C15.6 7.63833 15.5 7.40067 15.3 7.2C15.1 6.99933 14.8627 6.89933 14.588 6.9C14.3133 6.90067 14.0757 7.00067 13.875 7.2L12 9.1L10.125 7.2C9.925 7 9.68767 6.9 9.413 6.9C9.13834 6.9 8.90067 7 8.7 7.2C8.49934 7.4 8.39934 7.63767 8.4 7.913C8.40067 8.18833 8.50067 8.42567 8.7 8.625L10.6 10.5L8.7 12.375C8.5 12.575 8.4 12.8127 8.4 13.088C8.4 13.3633 8.5 13.6007 8.7 13.8C8.9 13.9993 9.13767 14.0993 9.413 14.1C9.68834 14.1007 9.92567 14.0007 10.125 13.8L12 11.9ZM2 21C1.71667 21 1.47934 20.904 1.288 20.712C1.09667 20.52 1.00067 20.2827 1 20C0.999337 19.7173 1.09534 19.48 1.288 19.288C1.48067 19.096 1.718 19 2 19H22C22.2833 19 22.521 19.096 22.713 19.288C22.905 19.48 23.0007 19.7173 23 20C22.9993 20.2827 22.9033 20.5203 22.712 20.713C22.5207 20.9057 22.2833 21.0013 22 21H2ZM4 18C3.45 18 2.97934 17.8043 2.588 17.413C2.19667 17.0217 2.00067 16.5507 2 16V5C2 4.45 2.196 3.97933 2.588 3.588C2.98 3.19667 3.45067 3.00067 4 3H20C20.55 3 21.021 3.196 21.413 3.588C21.805 3.98 22.0007 4.45067 22 5V16C22 16.55 21.8043 17.021 21.413 17.413C21.0217 17.805 20.5507 18.0007 20 18H4ZM4 16H20V5H4V16Z" fill="#242424"/>
</svg>
