<svg width="24" height="24" viewBox="0 0 24 24" fill="none" xmlns="http://www.w3.org/2000/svg">
<path d="M12 2C12.9478 1.99997 13.8858 2.19243 14.757 2.5657C15.6282 2.93897 16.4145 3.48528 17.0683 4.17152C17.7221 4.85775 18.2297 5.66961 18.5604 6.55787C18.8911 7.44613 19.0379 8.3923 18.992 9.339C20.3287 9.80848 21.4562 10.7358 22.1748 11.9569C22.8933 13.1779 23.1567 14.6138 22.9181 16.0103C22.6795 17.4069 21.9545 18.6739 20.8713 19.5872C19.7881 20.5004 18.4168 21.0009 17 21H7C5.58323 21.0009 4.21184 20.5004 3.12868 19.5872C2.04552 18.6739 1.32047 17.4069 1.0819 16.0103C0.843337 14.6138 1.10665 13.1779 1.82523 11.9569C2.5438 10.7358 3.67127 9.80848 5.008 9.339C4.9621 8.3923 5.10893 7.44613 5.4396 6.55787C5.77027 5.66961 6.27788 4.85775 6.93167 4.17152C7.58546 3.48528 8.3718 2.93897 9.24302 2.5657C10.1142 2.19243 11.0522 1.99997 12 2ZM12 4C11.3229 4.00001 10.6529 4.13753 10.0306 4.40423C9.40828 4.67092 8.8466 5.06123 8.37963 5.55148C7.91266 6.04174 7.55012 6.62173 7.314 7.25628C7.07788 7.89084 6.97309 8.56674 7.006 9.243L7.076 10.731L5.672 11.225C4.7825 11.5396 4.03275 12.1583 3.55509 12.9719C3.07744 13.7856 2.90261 14.7418 3.06146 15.6718C3.22031 16.6018 3.70262 17.4458 4.42326 18.0548C5.1439 18.6637 6.05652 18.9985 7 19H17C17.7363 18.9998 18.4583 18.7963 19.0864 18.412C19.7145 18.0276 20.2243 17.4774 20.5597 16.8219C20.8951 16.1663 21.043 15.431 20.9872 14.6967C20.9314 13.9625 20.674 13.258 20.2433 12.6607C19.8127 12.0634 19.2255 11.5966 18.5466 11.3116C17.8676 11.0267 17.1231 10.9347 16.3952 11.0458C15.6673 11.1569 14.9842 11.4667 14.4211 11.9412C13.858 12.4157 13.4369 13.0365 13.204 13.735L11.306 13.102C11.7044 11.9071 12.4688 10.868 13.4908 10.1317C14.5127 9.3955 15.7405 8.99956 17 9C17 7.67392 16.4732 6.40215 15.5355 5.46447C14.5978 4.52678 13.3261 4 12 4Z" fill="black"/>
</svg>
