<svg width="24" height="24" viewBox="0 0 24 24" fill="none" xmlns="http://www.w3.org/2000/svg">
<path d="M7 6.8C7 6.082 6.3285 5.5 5.5 5.5C4.6715 5.5 4 6.082 4 6.8V17.2C4 17.918 4.6715 18.5 5.5 18.5C6.3285 18.5 7 17.918 7 17.2V6.8ZM20 6.8C20 6.082 19.3285 5.5 18.5 5.5C17.6715 5.5 17 6.082 17 6.8V17.2C17 17.918 17.6715 18.5 18.5 18.5C19.3285 18.5 20 17.918 20 17.2V6.8ZM4 9.3335C4 8.597 3.3285 8 2.5 8C1.6715 8 1 8.597 1 9.3335V14.6665C1 15.403 1.6715 16 2.5 16C3.3285 16 4 15.403 4 14.6665V9.3335ZM23 9.3335C23 8.597 22.3285 8 21.5 8C20.6715 8 20 8.597 20 9.3335V14.6665C20 15.403 20.6715 16 21.5 16C22.3285 16 23 15.403 23 14.6665V9.3335ZM7 13.5H17V10.5H7V13.5Z" stroke="black" stroke-width="2" stroke-linejoin="round"/>
</svg>
