<svg width="24" height="24" viewBox="0 0 24 24" fill="none" xmlns="http://www.w3.org/2000/svg">
<path d="M12.35 20.9997H5C4.46957 20.9997 3.96086 20.789 3.58579 20.4139C3.21071 20.0388 3 19.5301 3 18.9997V9.99968C2.99976 9.70833 3.06318 9.42045 3.18582 9.15617C3.30846 8.89189 3.48736 8.6576 3.71 8.46968L10.71 2.46968C11.0708 2.16512 11.5278 1.99805 12 1.99805C12.4722 1.99805 12.9292 2.16512 13.29 2.46968L20.29 8.46968C20.5126 8.6576 20.6915 8.89189 20.8142 9.15617C20.9368 9.42045 21.0002 9.70833 21 9.99968V12.3497" stroke="black" stroke-width="2" stroke-linecap="round" stroke-linejoin="round"/>
<path d="M14.8 12.4C14.7069 12.2758 14.5861 12.175 14.4472 12.1056C14.3084 12.0361 14.1552 12 14 12H10C9.73478 12 9.48043 12.1054 9.29289 12.2929C9.10536 12.4804 9 12.7348 9 13V21M15 18H21M18 15V21" stroke="black" stroke-width="2" stroke-linecap="round" stroke-linejoin="round"/>
</svg>
