<svg width="24" height="24" viewBox="0 0 24 24" fill="none" xmlns="http://www.w3.org/2000/svg">
<path d="M9.5 13.8667C10.2106 13.3001 11.0929 12.9923 12.0018 12.9941C12.9106 12.996 13.7917 13.3072 14.5 13.8767M12 17.0007H12.01" stroke="black" stroke-width="2" stroke-linecap="round" stroke-linejoin="round"/>
<path d="M3 10.0005C2.99993 9.70955 3.06333 9.4221 3.18579 9.1582C3.30824 8.89429 3.4868 8.66028 3.709 8.47248L10.709 2.47248C11.07 2.16739 11.5274 2 12 2C12.4726 2 12.93 2.16739 13.291 2.47248L20.291 8.47248C20.5132 8.66028 20.6918 8.89429 20.8142 9.1582C20.9367 9.4221 21.0001 9.70955 21 10.0005V19.0005C21 19.5309 20.7893 20.0396 20.4142 20.4147C20.0391 20.7898 19.5304 21.0005 19 21.0005H5C4.46957 21.0005 3.96086 20.7898 3.58579 20.4147C3.21071 20.0396 3 19.5309 3 19.0005V10.0005Z" stroke="black" stroke-width="2" stroke-linecap="round" stroke-linejoin="round"/>
<path d="M7 10.754C8.4189 9.618 10.1824 8.99902 12 8.99902C13.8176 8.99902 15.5811 9.618 17 10.754" stroke="black" stroke-width="2" stroke-linecap="round" stroke-linejoin="round"/>
</svg>
