<svg width="24" height="24" viewBox="0 0 24 24" fill="none" xmlns="http://www.w3.org/2000/svg">
<path d="M10 12.0008V8.96484M14 12.0008V8.96484M15 12.0008C15.2652 12.0008 15.5196 12.1062 15.7071 12.2937C15.8946 12.4813 16 12.7356 16 13.0008V15.0008C16 15.5313 15.7893 16.04 15.4142 16.4151C15.0391 16.7901 14.5304 17.0008 14 17.0008H10C9.46957 17.0008 8.96086 16.7901 8.58579 16.4151C8.21071 16.04 8 15.5313 8 15.0008V13.0008C8 12.7356 8.10536 12.4813 8.29289 12.2937C8.48043 12.1062 8.73478 12.0008 9 12.0008H15Z" stroke="black" stroke-width="2" stroke-linecap="round" stroke-linejoin="round"/>
<path d="M8.5 21.0005H5C4.46957 21.0005 3.96086 20.7898 3.58579 20.4147C3.21071 20.0396 3 19.5309 3 19.0005V10.0005C2.99993 9.70955 3.06333 9.4221 3.18579 9.1582C3.30824 8.89429 3.4868 8.66028 3.709 8.47248L10.709 2.47248C11.07 2.16739 11.5274 2 12 2C12.4726 2 12.93 2.16739 13.291 2.47248L20.291 8.47248C20.5132 8.66028 20.6918 8.89429 20.8142 9.1582C20.9367 9.4221 21.0001 9.70955 21 10.0005V19.0005C21 19.5309 20.7893 20.0396 20.4142 20.4147C20.0391 20.7898 19.5304 21.0005 19 21.0005H14C13.4696 21.0005 12.9609 20.7898 12.5858 20.4147C12.2107 20.0396 12 19.5309 12 19.0005V17.0005" stroke="black" stroke-width="2" stroke-linecap="round" stroke-linejoin="round"/>
</svg>
